<?xml version="1.0" encoding="utf-8"?>
<!-- Generator: Adobe Illustrator 19.0.0, SVG Export Plug-In . SVG Version: 6.00 Build 0)  -->
<svg version="1.1" id="Layer_1" xmlns="http://www.w3.org/2000/svg" xmlns:xlink="http://www.w3.org/1999/xlink" x="0px" y="0px"
	 viewBox="28 2 10 10" style="enable-background:new 28 2 10 10;" xml:space="preserve">
<style type="text/css">
	.st0{fill:#FFFFFF;}
</style>
<path class="st0" d="M37.7,3.7c-0.4-0.4-1.1-0.4-1.5,0.1l-4.4,4.4l-2-2.1c-0.4-0.4-1.1-0.5-1.5-0.1s-0.4,1.1,0.1,1.5l2.7,2.7
	c0.1,0.1,0.3,0.2,0.4,0.3c0,0,0.1,0,0.1,0c0.1,0,0.2,0,0.2,0c0.1,0,0.2,0,0.2,0c0,0,0.1,0,0.1,0c0.2-0.1,0.3-0.1,0.4-0.3l5-5.1
	C38.1,4.8,38.1,4.1,37.7,3.7z"/>
</svg>
