<?xml version="1.0" encoding="UTF-8"?>
<svg width="10px" height="10px" viewBox="0 0 10 10" version="1.1" xmlns="http://www.w3.org/2000/svg" xmlns:xlink="http://www.w3.org/1999/xlink">
    <!-- Generator: sketchtool 42 (36781) - http://www.bohemiancoding.com/sketch -->
    <title>FDDEFF5E-A8BF-495A-90C3-8A981F302B59</title>
    <desc>Created with sketchtool.</desc>
    <defs></defs>
    <g id="Mobile---After-Login" stroke="none" stroke-width="1" fill="none" fill-rule="evenodd">
        <g id="iOS-Ticker-Hijau" transform="translate(-297.000000, -136.000000)" fill-rule="nonzero" fill="#CDE4C3">
            <g id="Ticker" transform="translate(7.000000, 130.000000)">
                <g id="icon_right_grey-copy" transform="translate(290.000000, 6.000000)">
                    <path d="M4.99989385,5.56556796 L9.31717094,9.88284506 C9.47337754,10.0390516 9.72663846,10.0390516 9.88284506,9.88284506 C10.0390516,9.72663846 10.0390516,9.47337754 9.88284506,9.31717094 L5.56558026,4.99990615 L9.88283891,0.682835205 C10.0390489,0.526632008 10.0390544,0.273371082 9.8828512,0.117161093 C9.72664801,-0.0390488951 9.47338708,-0.0390544009 9.31717709,0.117148796 L4.99990615,4.43423203 L0.683029052,0.11735494 C0.526822459,-0.0388516521 0.273561533,-0.0388516521 0.11735494,0.11735494 C-0.0388516521,0.273561533 -0.0388516521,0.526822459 0.11735494,0.683029052 L4.43421974,4.99989385 L0.117361089,9.31656481 C-0.0388488991,9.472768 -0.0388544049,9.72602893 0.117348792,9.88223892 C0.273551988,10.0384489 0.526812915,10.0384544 0.683022903,9.88225122 L4.99989385,5.56556796 Z" id="Combined-Shape"></path>
                </g>
            </g>
        </g>
    </g>
</svg>