<?xml version="1.0" encoding="utf-8"?>
<!-- Generator: Adobe Illustrator 19.0.0, SVG Export Plug-In . SVG Version: 6.00 Build 0)  -->
<svg version="1.1" id="Layer_1" xmlns="http://www.w3.org/2000/svg" xmlns:xlink="http://www.w3.org/1999/xlink" x="0px" y="0px"
	 viewBox="0 0 45 45" style="enable-background:new 0 0 45 45;" xml:space="preserve">
<g id="XMLID_361_" style="display:none;">
	<g id="XMLID_209_">
		<g id="XMLID_224_" style="display:inline;">
			
				<path id="XMLID_225_" style="fill:#EAEAEA;stroke:#999999;stroke-linecap:round;stroke-linejoin:round;stroke-miterlimit:10;" d="
				M29.6,27c-6.4,4.5-10.4,4.2-10.4,4.2l-10-0.5c0,0-2.2,0.1-2.2,1.9c-0.1,1.8,1.7,2.2,1.7,2.2S21,35.2,23,35.3
				c2.1,0.1,4.2-0.4,5.2-1.5c1-1.1,4.2-4.2,6.2-5.1c1.4-0.7,3.8-0.2,3.8-0.2c1.6,0.1,1.7-1.1,1.7-1.1s0.5-3.5,0.4-5.1
				c-0.1-1.6-2.1-1.5-2.1-1.5L32,20.5c0,0-2.9-0.3-5.1,1.8c-2.3,2.1-3.4,3.4-6.5,4.5c-3.2,1.2-2.5,2.7-2.5,2.7s0.2,1.9,2.4,1.6
				C20.2,31.1,24,30.9,29.6,27z"/>
		</g>
		<g id="XMLID_210_" style="display:inline;">
			<g id="XMLID_220_">
				<g id="XMLID_221_">
					<path id="XMLID_222_" style="fill:#FFFFFF;" d="M14.2,25.6c-0.1,0-0.2,0-0.3-0.1c-0.2-0.2-5.5-4.4-7.2-6
						c-1.7-1.7-1.9-3.6-1.9-4.8c0-2.8,2.2-5,5-5c1.9,0,3.6,1.1,4.4,2.7c0.8-1.6,2.5-2.7,4.4-2.7c2.8,0,5,2.2,5,5
						c0,1.2-0.2,3.1-1.9,4.8c-1.6,1.6-7,5.8-7.2,6C14.4,25.6,14.3,25.6,14.2,25.6z"/>
				</g>
			</g>
			<g id="XMLID_216_">
				<g id="XMLID_217_">
					<path id="XMLID_218_" style="fill:#EAEAEA;" d="M15.4,24.9c-0.1,0-0.2,0-0.3-0.1c-0.2-0.2-5.1-4.4-6.5-6
						c-1.6-1.7-2.1-2.9-2.1-4.1c0-2.8,2-5,4.5-5c1.8,0,2.4,1.1,3.2,2.7c0.8-1.6,3.1-2.7,4.9-2.7c2.5,0,4.5,2.2,4.5,5
						c0,1.2-0.2,3.1-1.8,4.8c-1.5,1.6-5.9,5.1-6.2,5.3C15.6,24.8,15.5,24.9,15.4,24.9z"/>
				</g>
			</g>
			<g id="XMLID_212_">
				<g id="XMLID_213_">
					<path id="XMLID_214_" style="fill:none;stroke:#999999;stroke-linecap:round;stroke-linejoin:round;stroke-miterlimit:10;" d="
						M14.2,25.6c-0.1,0-0.2,0-0.3-0.1c-0.2-0.2-5.5-4.4-7.2-6c-1.7-1.7-1.9-3.6-1.9-4.8c0-2.8,2.2-5,5-5c1.9,0,3.6,1.1,4.4,2.7
						c0.8-1.6,2.5-2.7,4.4-2.7c2.8,0,5,2.2,5,5c0,1.2-0.2,3.1-1.9,4.8c-1.6,1.6-7,5.8-7.2,6C14.4,25.6,14.3,25.6,14.2,25.6z"/>
				</g>
			</g>
			
				<path id="XMLID_211_" style="fill-rule:evenodd;clip-rule:evenodd;fill:none;stroke:#999999;stroke-linecap:round;stroke-linejoin:round;stroke-miterlimit:10;" d="
				M7.5,14.7c0-1.2,1-2.2,2.2-2.2h0"/>
		</g>
	</g>
	<g id="XMLID_199_">
		<g id="XMLID_202_" style="display:inline;">
			
				<path id="XMLID_203_" style="fill:#EAEAEA;stroke:#999999;stroke-linecap:round;stroke-linejoin:round;stroke-miterlimit:10;" d="
				M15,26.2c6,4.2,9.8,4,9.8,4l9.4-0.4c0,0,2.1,0.1,2.1,1.8c0,1.7-1.6,2.1-1.6,2.1S23.1,33.9,21.2,34c-1.9,0.1-4-0.4-4.9-1.4
				c-0.9-1-4-3.9-5.8-4.8C9.2,27.2,7,27.7,7,27.7c-1.5,0.1-1.6-1.1-1.6-1.1S5,23.3,5,21.8c0.1-1.5,1.9-1.4,1.9-1.4l5.8-0.3
				c0,0,2.7-0.3,4.8,1.7c2.1,1.9,3.2,3.1,6.1,4.3c3,1.1,2.4,2.5,2.4,2.5s-0.2,1.8-2.2,1.5C23.9,30.1,20.3,29.9,15,26.2z"/>
		</g>
		<g id="XMLID_200_" style="display:inline;">
			
				<path id="XMLID_201_" style="fill:#EAEAEA;stroke:#999999;stroke-linecap:round;stroke-linejoin:round;stroke-miterlimit:10;" d="
				M30,18.8c-6-4.2-9.8-4-9.8-4l-9.4,0.4c0,0-2.1-0.1-2.1-1.8c0-1.7,1.6-2.1,1.6-2.1s11.6-0.4,13.5-0.5c1.9-0.1,4,0.4,4.9,1.4
				c0.9,1,4,3.9,5.8,4.8c1.3,0.6,3.5,0.2,3.5,0.2c1.5-0.1,1.6,1.1,1.6,1.1s0.4,3.3,0.4,4.8c-0.1,1.5-1.9,1.4-1.9,1.4l-5.8,0.3
				c0,0-2.7,0.3-4.8-1.7c-2.1-1.9-3.2-3.1-6.1-4.3c-3-1.1-2.4-2.5-2.4-2.5s0.2-1.8,2.2-1.5C21.1,14.9,24.7,15.1,30,18.8z"/>
		</g>
	</g>
	<g id="XMLID_158_">
		<g id="XMLID_165_" style="display:inline;">
			
				<path id="XMLID_166_" style="fill:#EAEAEA;stroke:#999999;stroke-linecap:round;stroke-linejoin:round;stroke-miterlimit:10;" d="
				M28.4,28.4c-0.3,0-0.6-0.1-0.9-0.3c-1.4-1.1-3.2-1.7-5-1.7c-1.8,0-3.5,0.6-5,1.7c-0.6,0.5-1.6,0.4-2.1-0.3
				c-0.5-0.6-0.4-1.6,0.3-2.1c2-1.5,4.3-2.3,6.8-2.3c2.5,0,4.8,0.8,6.8,2.3c0.6,0.5,0.8,1.4,0.3,2.1C29.3,28.2,28.8,28.4,28.4,28.4z
				"/>
		</g>
		<g id="XMLID_163_" style="display:inline;">
			
				<circle id="XMLID_164_" style="fill:#EAEAEA;stroke:#999999;stroke-linecap:round;stroke-linejoin:round;stroke-miterlimit:10;" cx="22.5" cy="32.2" r="2.3"/>
		</g>
		<g id="XMLID_161_" style="display:inline;">
			
				<path id="XMLID_162_" style="fill:#EAEAEA;stroke:#999999;stroke-linecap:round;stroke-linejoin:round;stroke-miterlimit:10;" d="
				M11.7,24c-0.4,0-0.8-0.2-1.1-0.5c-0.5-0.6-0.5-1.6,0.1-2.1c3.2-2.9,7.4-4.5,11.8-4.5c4.4,0,8.5,1.6,11.8,4.5
				c0.6,0.5,0.7,1.5,0.1,2.1c-0.6,0.6-1.5,0.7-2.1,0.1c-2.7-2.4-6.2-3.7-9.8-3.7c-3.6,0-7.1,1.3-9.8,3.7C12.4,23.8,12.1,24,11.7,24z
				"/>
		</g>
		<g id="XMLID_159_" style="display:inline;">
			
				<path id="XMLID_160_" style="fill:#EAEAEA;stroke:#999999;stroke-linecap:round;stroke-linejoin:round;stroke-miterlimit:10;" d="
				M7,19.7c-0.4,0-0.8-0.2-1.1-0.5c-0.6-0.6-0.5-1.5,0-2.1c4.5-4.3,10.3-6.6,16.5-6.6c6.2,0,12,2.3,16.5,6.6c0.6,0.6,0.6,1.5,0,2.1
				c-0.6,0.6-1.5,0.6-2.1,0c-3.9-3.7-9-5.8-14.5-5.8c-5.4,0-10.5,2.1-14.5,5.8C7.8,19.6,7.4,19.7,7,19.7z"/>
		</g>
	</g>
	<g id="XMLID_140_">
		<path id="XMLID_157_" style="display:inline;fill-rule:evenodd;clip-rule:evenodd;fill:#FFFFFF;" d="M29.5,33.1
			c-3-0.3-5.5-1.8-8.2-2.7c-2.6-0.8-5-1.8-7.4-1.8c-2.5,0-3.5,1-5.1,1.6c-0.3,0.1-0.7,0.2-1.1,0.1c-0.4,0-0.8-1.1-1.1-1.3
			c0,0-0.1,0.9-0.1,0.9v0.7c0,0.7,0.4,1.3,1.1,1.6c0.3,0.2,0.7,0.3,1.1,0.3c0.4,0,0.7-0.1,1-0.2c1.5-0.7,3.1-1,4.8-1
			c2.4,0,4.8,0.6,7.4,1.1c2.7,0.6,5.2,0.9,8.2,0.9c0.6,0,1.2,0,1.7-0.1C31.1,33.2,30.3,33.2,29.5,33.1z"/>
		<path id="XMLID_156_" style="display:inline;fill-rule:evenodd;clip-rule:evenodd;fill:#FFFFFF;" d="M15.5,11.7
			c3,0.3,5.5,1.8,8.2,2.7c2.6,0.8,5,1.8,7.4,1.8c2.5,0,3.5-1,5.1-1.6c0.3-0.1,0.7-0.2,1.1-0.1c0.4,0,0.8,1.1,1.1,1.3
			c0,0,0.1-0.9,0.1-0.9v-0.7c0-0.7-0.4-1.3-1.1-1.6c-0.3-0.2-0.7-0.3-1.1-0.3c-0.4,0-0.7,0.1-1,0.2c-1.5,0.7-3.1,1-4.8,1
			c-2.4,0-4.8-0.6-7.4-1.1c-2.7-0.6-5.2-0.9-8.2-0.9c-0.6,0-1.2,0-1.7,0.1C13.9,11.6,14.7,11.6,15.5,11.7z"/>
		<path id="XMLID_155_" style="display:inline;fill-rule:evenodd;clip-rule:evenodd;fill:#EAEAEA;" d="M37,12.8
			c-0.3-0.2-0.7-0.3-1.1-0.3c-0.3,0-0.7,0.1-1,0.2c-1.4,0.6-3,1-4.7,1c-2.3,0-4.7-0.5-7.2-1.1c-2.7-0.6-5.4-1.2-8.3-1.2
			c-0.4,0-0.9,0-1.3,0.1c-0.1,0-0.3,0-0.4,0c0.1,0,0.1,0,0.2,0c-1.8,0.2-3.5,0.7-5.2,1.6C7.4,13.4,7,14.1,7,14.9v15.2
			c0,0.2,0,0.4,0.1,0.6v0.1c0,0.6,0.4,1.2,1,1.5c0.3,0.2,0.7,0.2,1.1,0.2c0.3,0,0.7-0.1,1-0.2c1.4-0.6,3-0.9,4.7-0.9
			c2.3,0,4.7,0.5,7.2,1.1c2.5,0.6,5.2,1.1,7.9,1.2c0.1,0,0.2,0,0.3,0c0,0,0,0,0,0c0,0,0,0,0,0c0,0,0.1,0,0.1,0c0.3,0,0.7,0,1,0
			c0.2,0,0.4,0,0.6,0c-0.1,0-0.2,0-0.3,0c1.9-0.2,3.6-0.7,5.2-1.6c0.7-0.4,1.1-1.1,1.1-1.9V14.9v0v-0.6C38,13.7,37.6,13.1,37,12.8z"
			/>
		<path id="XMLID_154_" style="display:inline;fill-rule:evenodd;clip-rule:evenodd;fill:#FFFFFF;" d="M14.7,11.7
			c3,0.3,5.8,1.2,8.6,2c2.6,0.8,5,1.6,7.4,1.8c1.8,0.2,3.5,0,5.1-0.6c0.3-0.1,0.7-0.2,1.1-0.1c0.4,0,0.8,0.2,1.1,0.4
			c0,0,0.1,0.1,0.1,0.1v-0.7c0-0.7-0.4-1.3-1.1-1.6c-0.3-0.2-0.7-0.3-1.1-0.3c-0.4,0-0.7,0.1-1,0.2c-1.5,0.7-3.1,1-4.8,1
			c-2.4,0-4.8-0.6-7.4-1.1c-2.7-0.6-5.6-1.3-8.5-1.3c-0.6,0-1.2,0-1.7,0.1C13,11.6,13.8,11.6,14.7,11.7z"/>
		<path id="XMLID_153_" style="display:inline;fill-rule:evenodd;clip-rule:evenodd;fill:#FFFFFF;" d="M30.4,33.3
			c-3-0.3-5.8-1.2-8.6-2c-2.6-0.8-5-1.6-7.4-1.8c-1.8-0.2-3.5,0-5.1,0.6c-0.3,0.1-0.7,0.2-1.1,0.1c-0.4,0-0.8-0.2-1.1-0.4
			c0,0-0.1-0.1-0.1-0.1v0.7c0,0.7,0.4,1.3,1.1,1.6c0.3,0.2,0.7,0.3,1.1,0.3c0.4,0,0.7-0.1,1-0.2c1.5-0.7,3.1-1,4.8-1
			c2.4,0,4.8,0.6,7.4,1.1c2.7,0.6,5.6,1.3,8.5,1.3c0.6,0,1.2,0,1.7-0.1C32,33.4,31.2,33.4,30.4,33.3z"/>
		<g id="XMLID_141_" style="display:inline;">
			<g id="XMLID_142_">
				
					<path id="XMLID_152_" style="fill-rule:evenodd;clip-rule:evenodd;fill:none;stroke:#999999;stroke-linecap:round;stroke-linejoin:round;stroke-miterlimit:10;" d="
					M37,12.8c-0.3-0.2-0.7-0.3-1.1-0.3c-0.3,0-0.7,0.1-1,0.2c-1.4,0.6-3,1-4.7,1c-2.3,0-4.7-0.5-7.2-1.1c-2.7-0.6-5.4-1.2-8.3-1.2
					c-0.4,0-0.9,0-1.3,0.1c-0.1,0-0.3,0-0.4,0c0.1,0,0.1,0,0.2,0c-1.8,0.2-3.5,0.7-5.2,1.6C7.4,13.4,7,14.1,7,14.9v15.2
					c0,0.2,0,0.4,0.1,0.6v0.1c0,0.6,0.4,1.2,1,1.5c0.3,0.2,0.7,0.2,1.1,0.2c0.3,0,0.7-0.1,1-0.2c1.4-0.6,3-0.9,4.7-0.9
					c2.3,0,4.7,0.5,7.2,1.1c2.5,0.6,5.2,1.1,7.9,1.2c0.1,0,0.2,0,0.3,0c0,0,0,0,0,0c0,0,0,0,0,0c0,0,0.1,0,0.1,0c0.3,0,0.7,0,1,0
					c0.2,0,0.4,0,0.6,0c-0.1,0-0.2,0-0.3,0c1.9-0.2,3.6-0.7,5.2-1.6c0.7-0.4,1.1-1.1,1.1-1.9V14.9v0v-0.6C38,13.7,37.6,13.1,37,12.8
					z"/>
				
					<path id="XMLID_151_" style="fill-rule:evenodd;clip-rule:evenodd;fill:none;stroke:#999999;stroke-width:0.75;stroke-linecap:round;stroke-linejoin:round;stroke-miterlimit:10;" d="
					M30.7,17.3c0,0,1.9,0.6,4.2-0.7"/>
				
					<path id="XMLID_150_" style="fill-rule:evenodd;clip-rule:evenodd;fill:none;stroke:#999999;stroke-width:0.75;stroke-linecap:round;stroke-linejoin:round;stroke-miterlimit:10;" d="
					M14.4,27.4c0,0-1.9-0.6-4.2,0.7"/>
				<g id="XMLID_143_">
					<path id="XMLID_147_" style="fill:#999999;" d="M21.1,21.5l0.2-0.2c0.4-0.5,0.7-1,0.7-1.7c0-0.7-0.2-1.2-0.7-1.7
						c-0.5-0.5-1-0.7-1.6-0.7l-2.3,0c-0.2,0-0.3,0.1-0.4,0.2c-0.1,0.1-0.2,0.2-0.2,0.4v7c0,0.2,0.1,0.3,0.2,0.4
						c0.1,0.1,0.2,0.2,0.4,0.2c0.2,0,0.3-0.1,0.4-0.2c0.1-0.1,0.2-0.2,0.2-0.4V22h1.7c0.1,0,0.2,0,0.3,0l0.1,0l1.8,3.2
						c0.1,0.1,0.2,0.2,0.4,0.3c0,0,0.1,0,0.1,0c0.1,0,0.2,0,0.3-0.1c0.1-0.1,0.2-0.2,0.3-0.3c0-0.1,0-0.1,0-0.2c0-0.1,0-0.2-0.1-0.3
						L21.1,21.5z M17.9,18.4h1.7c0.3,0,0.6,0.1,0.9,0.4c0.2,0.2,0.4,0.5,0.4,0.9c0,0.3-0.1,0.6-0.4,0.9c-0.2,0.2-0.5,0.4-0.9,0.4
						h-1.7V18.4z"/>
					<path id="XMLID_144_" style="fill:#999999;" d="M28,20.6c-0.5-0.6-1.2-0.8-2-0.8c-0.8,0-1.4,0.3-2,0.8c-0.5,0.5-0.8,1.2-0.8,2
						v4.6c0,0.2,0.1,0.3,0.2,0.4c0.1,0.1,0.2,0.2,0.4,0.2c0.1,0,0.3-0.1,0.4-0.2c0.1-0.1,0.2-0.2,0.2-0.4v-2.3l0.2,0.1
						c0.4,0.3,0.9,0.4,1.4,0.4c0.8,0,1.4-0.3,2-0.8c0.5-0.6,0.8-1.2,0.8-2C28.8,21.8,28.5,21.1,28,20.6z M26,24.3
						c-0.5,0-0.8-0.2-1.2-0.5c-0.3-0.3-0.4-0.6-0.5-1l0-0.3c0-0.4,0.2-0.8,0.5-1.1c0.3-0.3,0.7-0.5,1.2-0.5c0.5,0,0.9,0.2,1.2,0.5
						c0.3,0.3,0.5,0.7,0.5,1.2c0,0.5-0.2,0.9-0.5,1.2C26.9,24.1,26.5,24.3,26,24.3z"/>
				</g>
			</g>
		</g>
	</g>
	<g id="XMLID_137_">
		
			<path id="XMLID_139_" style="display:inline;fill:#EAEAEA;stroke:#999999;stroke-linecap:round;stroke-linejoin:round;stroke-miterlimit:10;" d="
			M17,14.2c7.1-1.8,10.6-0.3,10.6-0.3l8.6,3.7c0,0,2,0.6,2.6-1c0.6-1.6-0.8-2.5-0.8-2.5S27.3,9.7,25.5,9c-1.8-0.8-3.9-1-5.1-0.4
			c-1.2,0.6-5.1,2.3-7.1,2.5C11.9,11.2,9.9,10,9.9,10c-1.3-0.6-1.8,0.4-1.8,0.4s-1.6,2.9-2,4.3c-0.5,1.4,1.3,2,1.3,2l5.3,2.4
			c0,0,2.4,1.2,5.1,0.1c2.7-1.1,4.1-1.8,7.2-1.8s3.1-1.5,3.1-1.5s0.4-1.7-1.5-2.2C26.7,13.6,23.2,12.6,17,14.2z"/>
		
			<path id="XMLID_138_" style="display:inline;fill:#EAEAEA;stroke:#999999;stroke-linecap:round;stroke-linejoin:round;stroke-miterlimit:10;" d="
			M28,30.8c-7.1,1.8-10.6,0.3-10.6,0.3l-8.6-3.7c0,0-2-0.6-2.6,1c-0.6,1.6,0.8,2.5,0.8,2.5s10.7,4.4,12.5,5.2c1.8,0.8,3.9,1,5.1,0.4
			c1.2-0.6,5.1-2.3,7.1-2.5c1.4-0.1,3.4,1.1,3.4,1.1c1.3,0.6,1.8-0.4,1.8-0.4s1.6-2.9,2-4.3c0.5-1.4-1.3-2-1.3-2l-5.3-2.4
			c0,0-2.4-1.2-5.1-0.1c-2.7,1.1-4.1,1.8-7.2,1.8s-3.1,1.5-3.1,1.5s-0.4,1.7,1.5,2.2C18.3,31.4,21.8,32.4,28,30.8z"/>
	</g>
	<g id="XMLID_129_">
		
			<path id="XMLID_136_" style="display:inline;fill:none;stroke:#999999;stroke-linecap:round;stroke-linejoin:round;stroke-miterlimit:10;" d="
			M22.1,28.4"/>
		<g id="XMLID_134_" style="display:inline;">
			<path id="XMLID_135_" style="fill:#FFFFFF;" d="M12.5,28c0,5.2,4.6,9.5,10,9.5c5.3,0,10-4.6,10-9.8c0-5.7-10-20.2-10-20.2
				S12.5,22,12.5,28z"/>
		</g>
		<path id="XMLID_133_" style="display:inline;fill:#EAEAEA;" d="M27.5,27.9c-5.4,0-10-4.4-10-9.5c0-1.4,0.5-3.2,1.3-5.1
			C16,17.9,12.5,24.4,12.5,28c0,5.2,4.6,9.5,10,9.5c5.3,0,10-4.6,10-9.8c0-0.4,0-0.8-0.1-1.2C30.9,27.4,29.3,27.9,27.5,27.9z"/>
		<g id="XMLID_131_" style="display:inline;">
			<path id="XMLID_132_" style="fill:none;stroke:#999999;stroke-linecap:round;stroke-linejoin:round;stroke-miterlimit:10;" d="
				M12.5,28c0,5.2,4.6,9.5,10,9.5c5.3,0,10-4.6,10-9.8c0-5.7-10-20.2-10-20.2S12.5,22,12.5,28z"/>
		</g>
		
			<path id="XMLID_130_" style="display:inline;fill:none;stroke:#999999;stroke-width:0.75;stroke-linecap:round;stroke-linejoin:round;stroke-miterlimit:10;" d="
			M17.3,25.7c-0.5,0.7-0.9,1.9-0.9,2.9c0,2.4,2.1,4.4,4.6,4.4"/>
	</g>
	<g id="XMLID_106_">
		<g id="XMLID_124_" style="display:inline;">
			<path id="XMLID_128_" style="fill:none;stroke:#999999;stroke-linecap:round;stroke-linejoin:round;stroke-miterlimit:10;" d="
				M29.3,20.8c4.4-0.5,7.7-2.5,7.7-4.9c0-2.8-4.4-5-9.8-5c-2.9,0-5.5,0.7-7.3,1.7"/>
			<path id="XMLID_127_" style="fill:none;stroke:#999999;stroke-linecap:round;stroke-linejoin:round;stroke-miterlimit:10;" d="
				M29.9,24.5c0.6-0.1,1.2-0.2,1.8-0.4c0.6-0.2,1.2-0.4,1.8-0.6c0.7-0.3,1.3-0.6,1.8-1c0.9-0.6,1.5-1.2,1.8-1.9c0-0.6,0-3.6,0-4.3
				c-0.3,0.8-0.9,1.9-1.8,2.5c-0.5,0.4-1.1,0.7-1.8,0.9c-0.5,0.2-1.1,0.4-1.8,0.6c-0.6,0.1-1.2,0.3-1.8,0.3"/>
			<path id="XMLID_126_" style="fill:none;stroke:#999999;stroke-linecap:round;stroke-linejoin:round;stroke-miterlimit:10;" d="
				M28.6,28.2c0.6,0,0.7,0,1.3-0.1c0.6-0.1,1.2-0.2,1.8-0.4c0.6-0.2,1.2-0.4,1.8-0.6c0.7-0.3,1.3-0.6,1.8-1c0.9-0.6,1.5-1.2,1.8-1.9
				c0-0.6,0-3.1,0-3.8c-0.3,0.8-0.9,1.4-1.8,2.1c-0.5,0.4-1.1,0.7-1.8,0.9c-0.5,0.2-1.1,0.4-1.8,0.6c-0.6,0.1-1.2,0.3-1.8,0.3"/>
			<path id="XMLID_125_" style="fill:none;stroke:#999999;stroke-linecap:round;stroke-linejoin:round;stroke-miterlimit:10;" d="
				M25.1,32.1c0.6,0.1,0.6,0.1,1.2,0.1c0.3,0,0.6,0,0.9,0c0.3,0,0.6,0,0.9,0c0.6,0,1.2-0.1,1.8-0.2c0.6-0.1,1.2-0.2,1.8-0.4
				c0.6-0.2,1.2-0.4,1.8-0.6c0.7-0.3,1.3-0.6,1.8-1c0.9-0.6,1.5-1.2,1.8-1.9c0-0.6,0-3.1,0-3.8c-0.3,0.8-0.9,1.4-1.8,2.1
				c-0.5,0.4-1.1,0.7-1.8,0.9c-0.5,0.2-1.1,0.4-1.8,0.6c-0.6,0.1-1.2,0.3-1.8,0.3c-0.6,0.1-0.5,0-1.1,0.1"/>
		</g>
		<polygon id="XMLID_123_" style="display:inline;fill-rule:evenodd;clip-rule:evenodd;fill:#EAEAEA;" points="34.3,30.1 31.5,31.9 
			31.5,20.4 34.3,18.7 		"/>
		<g id="XMLID_107_" style="display:inline;">
			<g id="XMLID_118_">
				<path id="XMLID_122_" style="fill:none;stroke:#999999;stroke-linecap:round;stroke-linejoin:round;stroke-miterlimit:10;" d="
					M29.3,20.8c4.4-0.5,7.7-2.5,7.7-4.9c0-2.8-4.4-5-9.8-5c-2.9,0-5.5,0.7-7.3,1.7"/>
				<path id="XMLID_121_" style="fill:none;stroke:#999999;stroke-linecap:round;stroke-linejoin:round;stroke-miterlimit:10;" d="
					M29.9,24.5c0.6-0.1,1.2-0.2,1.8-0.4c0.6-0.2,1.2-0.4,1.8-0.6c0.7-0.3,1.3-0.6,1.8-1c0.9-0.6,1.5-1.2,1.8-1.9c0-0.6,0-3.6,0-4.3
					c-0.3,0.8-0.9,1.9-1.8,2.5c-0.5,0.4-1.1,0.7-1.8,0.9c-0.5,0.2-1.1,0.4-1.8,0.6c-0.6,0.1-1.2,0.3-1.8,0.3"/>
				<path id="XMLID_120_" style="fill:none;stroke:#999999;stroke-linecap:round;stroke-linejoin:round;stroke-miterlimit:10;" d="
					M28.6,28.2c0.6,0,0.7,0,1.3-0.1c0.6-0.1,1.2-0.2,1.8-0.4c0.6-0.2,1.2-0.4,1.8-0.6c0.7-0.3,1.3-0.6,1.8-1
					c0.9-0.6,1.5-1.2,1.8-1.9c0-0.6,0-3.1,0-3.8c-0.3,0.8-0.9,1.4-1.8,2.1c-0.5,0.4-1.1,0.7-1.8,0.9c-0.5,0.2-1.1,0.4-1.8,0.6
					c-0.6,0.1-1.2,0.3-1.8,0.3"/>
				<path id="XMLID_119_" style="fill:none;stroke:#999999;stroke-linecap:round;stroke-linejoin:round;stroke-miterlimit:10;" d="
					M25.1,32.1c0.6,0.1,0.6,0.1,1.2,0.1c0.3,0,0.6,0,0.9,0c0.3,0,0.6,0,0.9,0c0.6,0,1.2-0.1,1.8-0.2c0.6-0.1,1.2-0.2,1.8-0.4
					c0.6-0.2,1.2-0.4,1.8-0.6c0.7-0.3,1.3-0.6,1.8-1c0.9-0.6,1.5-1.2,1.8-1.9c0-0.6,0-3.1,0-3.8c-0.3,0.8-0.9,1.4-1.8,2.1
					c-0.5,0.4-1.1,0.7-1.8,0.9c-0.5,0.2-1.1,0.4-1.8,0.6c-0.6,0.1-1.2,0.3-1.8,0.3c-0.6,0.1-0.5,0-1.1,0.1"/>
			</g>
			<g id="XMLID_108_">
				<g id="XMLID_109_">
					
						<circle id="XMLID_117_" style="fill:#EAEAEA;stroke:#999999;stroke-linecap:round;stroke-linejoin:round;stroke-miterlimit:10;" cx="18.8" cy="23.3" r="10.8"/>
					<g id="XMLID_110_">
						<path id="XMLID_114_" style="fill:#999999;" d="M17.3,22.5l0.2-0.2c0.4-0.5,0.7-1,0.7-1.7c0-0.7-0.2-1.2-0.7-1.7
							c-0.5-0.5-1-0.7-1.7-0.7l-2.3,0c-0.2,0-0.3,0.1-0.4,0.2c-0.1,0.1-0.2,0.2-0.2,0.4v7.1c0,0.2,0.1,0.3,0.2,0.4
							c0.1,0.1,0.2,0.2,0.4,0.2c0.2,0,0.3-0.1,0.4-0.2C14,26.2,14,26,14,25.9V23h1.7c0.1,0,0.2,0,0.3,0l0.1,0l1.8,3.2
							c0.1,0.1,0.2,0.2,0.4,0.3c0,0,0.1,0,0.1,0c0.1,0,0.2,0,0.3-0.1c0.1-0.1,0.2-0.2,0.3-0.3c0,0,0-0.1,0-0.2c0-0.1,0-0.2-0.1-0.3
							L17.3,22.5z M14,19.3h1.7c0.3,0,0.6,0.1,0.9,0.4c0.2,0.2,0.4,0.5,0.4,0.9c0,0.3-0.1,0.6-0.4,0.9c-0.2,0.2-0.5,0.4-0.9,0.4H14
							V19.3z"/>
						<path id="XMLID_111_" style="fill:#999999;" d="M24.8,21.6c-0.5-0.6-1.2-0.8-2-0.8c-0.8,0-1.4,0.3-2,0.8
							c-0.5,0.6-0.8,1.2-0.8,2v4.6c0,0.2,0.1,0.3,0.2,0.4c0.1,0.1,0.2,0.2,0.4,0.2c0.2,0,0.3-0.1,0.4-0.2c0.1-0.1,0.2-0.3,0.2-0.4
							v-2.3l0.2,0.1c0.4,0.3,0.9,0.4,1.5,0.4c0.8,0,1.4-0.3,2-0.8c0.5-0.6,0.8-1.2,0.8-2C25.6,22.8,25.4,22.1,24.8,21.6z M22.8,25.3
							c-0.5,0-0.9-0.2-1.2-0.5c-0.3-0.3-0.4-0.6-0.5-1l0-0.3c0-0.5,0.2-0.8,0.5-1.1c0.3-0.3,0.7-0.5,1.2-0.5c0.5,0,0.9,0.2,1.2,0.5
							c0.3,0.3,0.5,0.7,0.5,1.2c0,0.5-0.2,0.9-0.5,1.2C23.7,25.1,23.3,25.3,22.8,25.3z"/>
					</g>
				</g>
			</g>
		</g>
	</g>
	<g id="XMLID_97_">
		<path id="XMLID_105_" style="display:inline;fill:#CDEBC3;" d="M20,13.1c-1.8-1.8-6-2.5-8.3,0.1c-2.3,2.5-4.2,8.4-4.2,14
			c0,6.8,5.7,7.7,8.8,4.4c1.8-1.9,2-2.2,3.1-3.7h6.3c1.2,1.5,1.3,1.8,3.1,3.7c3.1,3.3,8.8,2.4,8.8-4.4c0-5.6-1.9-11.5-4.2-14
			c-2.4-2.5-6.5-1.8-8.3-0.1c-0.7,0.7-2.5,0.9-2.5,0.9S20.7,13.8,20,13.1z"/>
		<path id="XMLID_104_" style="display:inline;fill:#CDEBC3;" d="M18.5,29l1.1-1.4c-6.9-0.6-9.8-4.3-10.9-8.5
			c-0.7,2.5-1.2,5.3-1.2,8.1c0,6.8,5.7,7.7,8.8,4.4C17.5,30.2,18,29.7,18.5,29L18.5,29z"/>
		<path id="XMLID_103_" style="display:inline;fill:#CDEBC3;" d="M26.5,29l-1.1-1.4c6.9-0.6,9.8-4.3,10.9-8.5
			c0.7,2.5,1.2,5.3,1.2,8.1c0,6.8-5.7,7.7-8.8,4.4C27.5,30.2,27,29.7,26.5,29L26.5,29z"/>
		
			<path id="XMLID_101_" style="display:inline;fill:#EAEAEA;stroke:#999999;stroke-linecap:round;stroke-linejoin:round;stroke-miterlimit:10;" d="
			M20,13.1c-1.8-1.8-6-2.5-8.3,0.1c-2.3,2.5-4.2,8.4-4.2,14c0,6.8,5.7,7.7,8.8,4.4c1.8-1.9,2-2.2,3.1-3.7h6.3
			c1.2,1.5,1.3,1.8,3.1,3.7c3.1,3.3,8.8,2.4,8.8-4.4c0-5.6-1.9-11.5-4.2-14c-2.4-2.5-6.5-1.8-8.3-0.1c-0.7,0.7-2.5,0.9-2.5,0.9
			S20.7,13.8,20,13.1z"/>
		
			<path id="XMLID_100_" style="display:inline;fill:#FFFFFF;stroke:#999999;stroke-width:0.75;stroke-linecap:round;stroke-linejoin:round;stroke-miterlimit:10;" d="
			M17.5,17.3v1.8h1.8c0.7,0,1.3,0.6,1.3,1.2s-0.6,1.3-1.3,1.3h-1.8v1.8c0,0.7-0.6,1.3-1.2,1.3c-0.7,0-1.3-0.6-1.3-1.3v-1.8h-1.8
			c-0.7,0-1.3-0.6-1.3-1.3s0.6-1.2,1.3-1.2H15v-1.8c0-0.7,0.6-1.3,1.3-1.3C16.9,16,17.5,16.5,17.5,17.3z"/>
		
			<circle id="XMLID_99_" style="display:inline;fill:#FFFFFF;stroke:#999999;stroke-width:0.75;stroke-linecap:round;stroke-linejoin:round;stroke-miterlimit:10;" cx="30.3" cy="18.1" r="1.6"/>
		
			<circle id="XMLID_98_" style="display:inline;fill:#FFFFFF;stroke:#999999;stroke-width:0.75;stroke-linecap:round;stroke-linejoin:round;stroke-miterlimit:10;" cx="27.2" cy="21.9" r="1.6"/>
	</g>
	<g id="XMLID_79_">
		<g id="XMLID_80_" style="display:inline;">
			<g id="XMLID_88_">
				<g id="XMLID_89_">
					<g id="A0MZW8.tif_30_">
						<g id="XMLID_95_">
							
								<path id="XMLID_96_" style="fill-rule:evenodd;clip-rule:evenodd;fill:none;stroke:#999999;stroke-linecap:round;stroke-linejoin:round;stroke-miterlimit:10;" d="
								M19,35.1c-0.9,0-1.4,0.1-1.5-0.8c-0.1-0.5-0.1-1.4-0.1-2c-0.2-1.5-2.8-4.2-3.7-5.8c-2.3-3.8-1.4-8.6,2.3-11.4
								c2.3-1.8,4.9-2.4,7.8-2.1c2.7,0.3,5,1.5,6.8,3.6c2.4,2.9,2.6,6.7,0.8,9.9c-1.3,2.2-3.8,4.5-3.9,5.8c0,0.3-0.1,1.4-0.2,2
								c-0.1,0.6-0.3,0.8-1.4,0.8C24.6,35.1,20.1,35.1,19,35.1z"/>
						</g>
					</g>
					<path id="XMLID_94_" style="fill-rule:evenodd;clip-rule:evenodd;fill:#EAEAEA;" d="M30.5,16.5c-1.8-2.1-4.1-3.3-6.8-3.6
						c-2.9-0.3-5.5,0.4-7.8,2.1c-0.7,0.6-1.4,1.2-1.9,1.9c0.3,0,0.5,0,0.8,0.1c3.2,0.4,5.9,1.7,8,4.2c2.8,3.3,3.1,7.8,0.9,11.6
						c-0.4,0.7-1,1.5-1.5,2.2c1.5,0,3,0,3.6,0c1.1,0,1.3-0.2,1.4-0.8c0.1-0.6,0.2-1.7,0.2-2c0.1-1.3,2.6-3.7,3.9-5.8
						C33.1,23.2,32.9,19.4,30.5,16.5z"/>
					<g id="A0MZW8.tif_21_">
						<g id="XMLID_92_">
							
								<path id="XMLID_93_" style="fill-rule:evenodd;clip-rule:evenodd;fill:none;stroke:#999999;stroke-linecap:round;stroke-linejoin:round;stroke-miterlimit:10;" d="
								M19,35.1c-0.9,0-1.4,0.1-1.5-0.8c-0.1-0.5-0.1-1.4-0.1-2c-0.2-1.5-2.8-4.2-3.7-5.8c-2.3-3.8-1.4-8.6,2.3-11.4
								c2.3-1.8,4.9-2.4,7.8-2.1c2.7,0.3,5,1.5,6.8,3.6c2.4,2.9,2.6,6.7,0.8,9.9c-1.3,2.2-3.8,4.5-3.9,5.8c0,0.3-0.1,1.4-0.2,2
								c-0.1,0.6-0.3,0.8-1.4,0.8C24.6,35.1,20.1,35.1,19,35.1z"/>
						</g>
					</g>
					
						<line id="XMLID_91_" style="fill-rule:evenodd;clip-rule:evenodd;fill:none;stroke:#999999;stroke-linecap:round;stroke-linejoin:round;stroke-miterlimit:10;" x1="18.1" y1="37.2" x2="26.7" y2="37.2"/>
					
						<line id="XMLID_90_" style="fill-rule:evenodd;clip-rule:evenodd;fill:none;stroke:#999999;stroke-linecap:round;stroke-linejoin:round;stroke-miterlimit:10;" x1="18.8" y1="39.2" x2="26.1" y2="39.2"/>
				</g>
			</g>
			<g id="XMLID_82_">
				
					<line id="XMLID_87_" style="fill-rule:evenodd;clip-rule:evenodd;fill:none;stroke:#999999;stroke-width:0.75;stroke-linecap:round;stroke-linejoin:round;stroke-miterlimit:10;" x1="22.3" y1="5.8" x2="22.3" y2="8.4"/>
				
					<line id="XMLID_86_" style="fill-rule:evenodd;clip-rule:evenodd;fill:none;stroke:#999999;stroke-width:0.75;stroke-linecap:round;stroke-linejoin:round;stroke-miterlimit:10;" x1="5.5" y1="23" x2="8" y2="23"/>
				
					<line id="XMLID_85_" style="fill-rule:evenodd;clip-rule:evenodd;fill:none;stroke:#999999;stroke-width:0.75;stroke-linecap:round;stroke-linejoin:round;stroke-miterlimit:10;" x1="37" y1="24" x2="39.5" y2="24"/>
				
					<line id="XMLID_84_" style="fill-rule:evenodd;clip-rule:evenodd;fill:none;stroke:#999999;stroke-width:0.75;stroke-linecap:round;stroke-linejoin:round;stroke-miterlimit:10;" x1="33.5" y1="13" x2="35.3" y2="11.3"/>
				
					<line id="XMLID_83_" style="fill-rule:evenodd;clip-rule:evenodd;fill:none;stroke:#999999;stroke-width:0.75;stroke-linecap:round;stroke-linejoin:round;stroke-miterlimit:10;" x1="11.6" y1="13.2" x2="9.9" y2="11.4"/>
			</g>
			
				<path id="XMLID_81_" style="fill-rule:evenodd;clip-rule:evenodd;fill:none;stroke:#999999;stroke-width:0.75;stroke-linecap:round;stroke-linejoin:round;stroke-miterlimit:10;" d="
				M28.7,25.4c1.3-2.2,1.1-4.9-0.5-6.9c-1.2-1.5-2.8-2.3-4.7-2.5"/>
		</g>
	</g>
	<g id="XMLID_54_">
		<g id="XMLID_66_" style="display:inline;">
			<g id="XMLID_76_">
				<path id="XMLID_434_" style="fill:#FFFFFF;" d="M33.1,35.5c0,1.1-0.9,2-2,2H13.9c-1.1,0-2-0.9-2-2v-26c0-1.1,0.9-2,2-2h17.2
					c1.1,0,2,0.9,2,2V35.5z"/>
			</g>
			<path id="XMLID_74_" style="fill:#EAEAEA;" d="M11.9,31.4h21.1V11.1H11.9V31.4z"/>
			
				<line id="XMLID_73_" style="fill:none;stroke:#999999;stroke-width:0.75;stroke-linecap:round;stroke-linejoin:round;stroke-miterlimit:10;" x1="11.9" y1="10.9" x2="33.1" y2="10.9"/>
			
				<line id="XMLID_72_" style="fill:none;stroke:#999999;stroke-width:0.75;stroke-linecap:round;stroke-linejoin:round;stroke-miterlimit:10;" x1="11.9" y1="31.4" x2="33.1" y2="31.4"/>
			<g id="XMLID_69_">
				<path id="XMLID_431_" style="fill:none;stroke:#999999;stroke-linecap:round;stroke-linejoin:round;stroke-miterlimit:10;" d="
					M33.1,35.5c0,1.1-0.9,2-2,2H13.9c-1.1,0-2-0.9-2-2v-26c0-1.1,0.9-2,2-2h17.2c1.1,0,2,0.9,2,2V35.5z"/>
			</g>
			
				<path id="XMLID_68_" style="fill:none;stroke:#333333;stroke-width:0.75;stroke-linecap:round;stroke-linejoin:round;stroke-miterlimit:10;" d="
				M21.4,34.8"/>
			<path id="XMLID_67_" style="fill:#999999;" d="M23.4,35.3c-0.5,0.5-1.3,0.5-1.9,0c-0.3-0.3-0.4-0.6-0.4-0.9
				c0-0.4,0.1-0.7,0.4-0.9c0.3-0.3,0.6-0.4,0.9-0.4c0.4,0,0.7,0.1,0.9,0.4c0.3,0.3,0.4,0.6,0.4,0.9C23.8,34.7,23.7,35,23.4,35.3z"/>
		</g>
		<g id="XMLID_55_" style="display:inline;">
			<g id="XMLID_61_">
				<g id="XMLID_64_">
					<path id="XMLID_65_" style="fill:#999999;" d="M9.4,18.8c0,0.2-0.1,0.4-0.2,0.6c-1.4,1.8-1.4,4.4,0,6.2c0.3,0.4,0.2,1-0.2,1.3
						c-0.4,0.3-1,0.2-1.3-0.2c-1-1.2-1.5-2.7-1.5-4.2c0-1.6,0.5-3,1.5-4.2C8,17.9,8.6,17.8,9,18.1C9.2,18.3,9.4,18.6,9.4,18.8z"/>
				</g>
				<g id="XMLID_62_">
					<path id="XMLID_63_" style="fill:#999999;" d="M6.6,29.2c0,0.3-0.1,0.5-0.3,0.7c-0.4,0.3-1,0.3-1.3-0.1c-1.8-2-2.8-4.6-2.8-7.3
						c0-2.7,1-5.3,2.8-7.3c0.3-0.4,0.9-0.4,1.3-0.1c0.4,0.3,0.4,0.9,0.1,1.3C4.9,18.1,4,20.2,4,22.5c0,2.3,0.8,4.4,2.3,6.1
						C6.5,28.8,6.6,29,6.6,29.2z"/>
				</g>
			</g>
			<g id="XMLID_56_">
				<g id="XMLID_59_">
					<path id="XMLID_60_" style="fill:#999999;" d="M35.6,18.8c0,0.2,0.1,0.4,0.2,0.6c1.4,1.8,1.4,4.4,0,6.2c-0.3,0.4-0.2,1,0.2,1.3
						c0.4,0.3,1,0.2,1.3-0.2c1-1.2,1.5-2.7,1.5-4.2c0-1.6-0.5-3-1.5-4.2c-0.3-0.4-0.9-0.5-1.3-0.2C35.8,18.3,35.6,18.6,35.6,18.8z"
						/>
				</g>
				<g id="XMLID_57_">
					<path id="XMLID_58_" style="fill:#999999;" d="M38.4,29.2c0,0.3,0.1,0.5,0.3,0.7c0.4,0.3,1,0.3,1.3-0.1c1.8-2,2.8-4.6,2.8-7.3
						c0-2.7-1-5.3-2.8-7.3c-0.3-0.4-0.9-0.4-1.3-0.1c-0.4,0.3-0.4,0.9-0.1,1.3c1.5,1.7,2.3,3.8,2.3,6.1c0,2.3-0.8,4.4-2.3,6.1
						C38.5,28.8,38.4,29,38.4,29.2z"/>
				</g>
			</g>
		</g>
	</g>
	<g id="XMLID_50_">
		
			<circle id="XMLID_53_" style="display:inline;fill:#EAEAEA;stroke:#999999;stroke-linecap:round;stroke-linejoin:round;stroke-miterlimit:10;" cx="11.6" cy="22.5" r="3.1"/>
		
			<circle id="XMLID_52_" style="display:inline;fill:#EAEAEA;stroke:#999999;stroke-linecap:round;stroke-linejoin:round;stroke-miterlimit:10;" cx="22.5" cy="22.5" r="3.1"/>
		
			<circle id="XMLID_51_" style="display:inline;fill:#EAEAEA;stroke:#999999;stroke-linecap:round;stroke-linejoin:round;stroke-miterlimit:10;" cx="33.4" cy="22.5" r="3.1"/>
	</g>
	<g id="XMLID_23_">
		<g id="XMLID_32_" style="display:inline;">
			<g id="GcQSZb_13_">
				<g id="XMLID_33_">
					<g id="XMLID_46_">
						
							<path id="XMLID_49_" style="fill:#EAEAEA;stroke:#999999;stroke-linecap:round;stroke-linejoin:round;stroke-miterlimit:10;" d="
							M14.4,8.8c1.1-0.6,2.9-1.5,4.2-1.8c1.7-0.4,3.4-0.6,5.1-0.5c0.8,0,1.6,0.2,2.3,0.3c0,0-1.1,0.3-1.9,0.5
							c-1.1,0.2-2,0.8-2.9,1.5c-0.9,0.7-1.8,1.4-2.6,2.1c-0.9,0.7-1.9,1.3-3.2,1.6"/>
						
							<path id="XMLID_48_" style="fill:#EAEAEA;stroke:#999999;stroke-linecap:round;stroke-linejoin:round;stroke-miterlimit:10;" d="
							M13.3,14.8c0,0.5-0.9,2-1.9,3.2c-1.6,1.9-2.3,4.1-2.5,5.1c-0.1,0.3-0.2,0.8-0.3,0.9c-0.8-1.4-1-2.8-1.1-3.7
							c-0.3-3,1.1-5.9,1.7-6.3"/>
						
							<path id="XMLID_47_" style="fill:#EAEAEA;stroke:#999999;stroke-linecap:round;stroke-linejoin:round;stroke-miterlimit:10;" d="
							M8.3,11.5c-0.1-2.1,1.7-3.7,3.7-3.7c2,0,3.6,1.6,3.6,3.7c0,2-1.7,3.6-3.7,3.6C9.9,15,8.2,13.5,8.3,11.5z"/>
					</g>
					<g id="XMLID_42_">
						<path id="XMLID_45_" style="fill:none;stroke:#999999;stroke-linecap:round;stroke-linejoin:round;stroke-miterlimit:10;" d="
							M9.3,31.8c-0.6-1.1-1.5-2.9-1.8-4.2c-0.4-1.7-0.6-3.4-0.5-5.1c0-0.8,0.4-2.3,0.4-2.3c0.1,0.6,0.3,1.2,0.4,1.9
							c0.2,1.1,0.8,2,1.5,2.9c0.7,0.9,1.4,1.8,2.1,2.6c0.7,0.9,1.3,1.9,1.6,3.2"/>
						<path id="XMLID_44_" style="fill:none;stroke:#999999;stroke-linecap:round;stroke-linejoin:round;stroke-miterlimit:10;" d="
							M15.3,33c0.5,0,0.9,0.2,1.2,0.4c0.8,0.5,1.5,1.1,2.2,1.7c0.7,0.7,1.3,1.3,2.3,1.6c0.3,0.1,1.6,0.2,1.6,0.2
							c-0.4,0.2-0.9,0.4-1.6,0.7c-0.9,0.3-2,0.5-2.9,0.5c-1,0-2.9-0.4-3.7-1"/>
						<path id="XMLID_43_" style="fill:none;stroke:#999999;stroke-linecap:round;stroke-linejoin:round;stroke-miterlimit:10;" d="
							M11.9,38c-2.1,0.1-3.7-1.7-3.7-3.7c0-2,1.6-3.6,3.7-3.6c2,0,3.6,1.7,3.6,3.7C15.5,36.3,14,38,11.9,38z"/>
					</g>
					<g id="XMLID_38_">
						
							<path id="XMLID_41_" style="fill:#EAEAEA;stroke:#999999;stroke-linecap:round;stroke-linejoin:round;stroke-miterlimit:10;" d="
							M30.6,36.2c-1.1,0.6-2.9,1.5-4.2,1.8c-1.7,0.4-3.4,0.6-5.1,0.5c-0.8,0-1.6-0.2-2.3-0.3c0,0,0.9-0.1,1.9-0.5
							c1.1-0.4,2-0.8,2.9-1.5c0.9-0.7,1.8-1.4,2.6-2.1c0.9-0.7,1.9-1.3,3.2-1.6"/>
						
							<path id="XMLID_40_" style="fill:#EAEAEA;stroke:#999999;stroke-linecap:round;stroke-linejoin:round;stroke-miterlimit:10;" d="
							M31.7,30.2c0-0.5,0.9-2,1.9-3.2c1.6-1.9,2.3-4.1,2.5-5.1c0.1-0.3,0.2-0.8,0.3-0.9c0.8,1.4,1,2.8,1.1,3.7
							c0.3,3-1.1,5.9-1.7,6.3"/>
						
							<path id="XMLID_39_" style="fill:#EAEAEA;stroke:#999999;stroke-linecap:round;stroke-linejoin:round;stroke-miterlimit:10;" d="
							M36.7,33.5c0.1,2.1-1.7,3.7-3.7,3.7c-2,0-3.6-1.6-3.6-3.7c0-2,1.7-3.6,3.7-3.6C35.1,30,36.8,31.5,36.7,33.5z"/>
					</g>
					<g id="XMLID_34_">
						<path id="XMLID_37_" style="fill:none;stroke:#999999;stroke-linecap:round;stroke-linejoin:round;stroke-miterlimit:10;" d="
							M35.7,13.2c0.6,1.1,1.5,2.9,1.8,4.2c0.4,1.7,0.6,3.4,0.5,5.1c0,0.8-0.4,2.3-0.4,2.3c-0.1-0.6-0.3-1.2-0.4-1.9
							c-0.2-1.1-0.8-2-1.5-2.9c-0.7-0.9-1.4-1.8-2.1-2.6c-0.7-0.9-1.3-1.9-1.6-3.2"/>
						<path id="XMLID_36_" style="fill:none;stroke:#999999;stroke-linecap:round;stroke-linejoin:round;stroke-miterlimit:10;" d="
							M29.7,12c-0.5,0-0.9-0.2-1.2-0.4c-0.8-0.5-1.5-1.1-2.2-1.7c-0.7-0.7-1.4-1.4-2.4-1.6C23.6,8.2,22.6,8,22.6,8
							c0.4-0.2,1.2-0.5,1.6-0.6c0.9-0.3,1.8-0.5,2.8-0.5c1,0,2.9,0.4,3.7,1"/>
						<path id="XMLID_35_" style="fill:none;stroke:#999999;stroke-linecap:round;stroke-linejoin:round;stroke-miterlimit:10;" d="
							M33.1,7c2.1-0.1,3.7,1.7,3.7,3.7c0,2-1.6,3.6-3.7,3.6c-2,0-3.6-1.7-3.6-3.7C29.5,8.7,31,7,33.1,7z"/>
					</g>
				</g>
			</g>
		</g>
		<g id="XMLID_30_" style="display:inline;">
			
				<path id="XMLID_31_" style="fill:#EAEAEA;stroke:#999999;stroke-width:0.5;stroke-linecap:round;stroke-linejoin:round;stroke-miterlimit:10;" d="
				M24.7,17.8v1.4l2.5-2.5l-2.5-2.5v1.5h-1c-0.8,0-2.7,0-3.5,0c-0.2,0-0.4,0-0.5,0.1c-0.3,0.1-0.6,0.3-0.7,0.6
				c-0.1,0.3-0.1,0.7-0.1,1c0,0.2,1.6,1.9,1.6,1.9s0-0.8,0-1.2c0-0.2,0.1-0.3,0.3-0.3c0.5,0,2.4,0,2.9,0H24.7z"/>
		</g>
		<g id="XMLID_28_" style="display:inline;">
			
				<path id="XMLID_29_" style="fill:#EAEAEA;stroke:#999999;stroke-width:0.5;stroke-linecap:round;stroke-linejoin:round;stroke-miterlimit:10;" d="
				M18.3,21.8c0,0.5,0,2.6,0,3.1c0,0.2,0.1,0.3,0.3,0.3c0.4,0,1.2,0,1.2,0s-1.7,1.6-1.9,1.6c-0.3,0-0.7,0-1-0.1
				c-0.4-0.1-0.5-0.3-0.6-0.7c0-0.2-0.1-0.4-0.1-0.5c0-0.8,0-2.9,0-3.7V21h-1.5l2.5-2.5l2.5,2.5h-1.4V21.8z"/>
		</g>
		<g id="XMLID_26_" style="display:inline;">
			
				<path id="XMLID_27_" style="fill:#EAEAEA;stroke:#999999;stroke-width:0.5;stroke-linecap:round;stroke-linejoin:round;stroke-miterlimit:10;" d="
				M21.4,29.4v1.5l-2.5-2.5l2.5-2.5v1.4h2c0.5,0,1.4,0,1.9,0c0.2,0,0.3-0.1,0.3-0.3c0-0.4,0-1.2,0-1.2s1.6,1.7,1.6,1.9
				c0,0.3,0,0.7-0.1,1c-0.1,0.4-0.3,0.5-0.7,0.6c-0.2,0.1-0.4,0.1-0.5,0.1c-0.8,0-1.7,0-2.5,0H21.4z"/>
		</g>
		<g id="XMLID_24_" style="display:inline;">
			
				<path id="XMLID_25_" style="fill:#EAEAEA;stroke:#999999;stroke-width:0.5;stroke-linecap:round;stroke-linejoin:round;stroke-miterlimit:10;" d="
				M29.8,22.6c0-0.8,0-2.2,0-2.9c0-0.2,0-0.4-0.1-0.5c-0.1-0.3-0.3-0.6-0.6-0.7c-0.3-0.1-0.7-0.1-1-0.1c-0.2,0-1.9,1.6-1.9,1.6
				s0.8,0,1.2,0c0.2,0,0.3,0.1,0.3,0.3c0,0.5,0,1.9,0,2.4v1.5h-1.4l2.5,2.5l2.5-2.5h-1.5V22.6z"/>
		</g>
	</g>
	<g id="XMLID_18_">
		
			<path id="XMLID_22_" style="display:inline;fill:none;stroke:#999999;stroke-linecap:round;stroke-linejoin:round;stroke-miterlimit:10;" d="
			M28.8,9.4c0,0,3.9,19.3-17.9,26.2c0,0,23.5-1.7,23.4-26.2H28.8z"/>
		<g id="XMLID_19_" style="display:inline;">
			<path id="XMLID_21_" style="fill:#EAEAEA;stroke:#999999;stroke-linecap:round;stroke-linejoin:round;stroke-miterlimit:10;" d="
				M36.8,17.9c-0.3,4.4-2.2,12.6-14.8,17c0.2,0,0.4,0,0.6,0C32,35,39,29.5,39,23.4C39,21.4,38.2,19.6,36.8,17.9z"/>
			<path id="XMLID_20_" style="fill:#EAEAEA;stroke:#999999;stroke-linecap:round;stroke-linejoin:round;stroke-miterlimit:10;" d="
				M25.1,16c0.1-1.2-0.1-2.4-0.4-3.5c-0.6,0-1.1-0.1-1.7-0.1c-9.4,0-17,5-17,11.1c0,3.4,2.4,6.4,6.1,8.5
				C18.8,29.5,24.7,23.8,25.1,16z"/>
		</g>
	</g>
	<g id="XMLID_10_" style="display:inline;">
		<path id="XMLID_17_" style="fill:#EAEAEA;stroke:#999999;stroke-linecap:round;stroke-linejoin:round;stroke-miterlimit:10;" d="
			M27.1,17.9c-1.2-1.2-3.2-1.2-4.4,0l4.4,4.4C28.4,21,28.4,19.1,27.1,17.9z"/>
		
			<path id="XMLID_16_" style="fill:none;stroke:#999999;stroke-width:0.75;stroke-linecap:round;stroke-linejoin:round;stroke-miterlimit:10;" d="
			M31.5,23.6c1.2-2.9,0.9-6.5-1.4-8.7c-2.3-2.3-5.8-2.6-8.7-1.4"/>
		<path id="XMLID_15_" style="fill:#EAEAEA;" d="M15.7,31.2c5.1,5.1,13.2,5.5,18.8,1.2c0.8-0.6,0.9-1.7,0.2-2.4L16.9,12.3
			c-0.7-0.7-1.8-0.6-2.4,0.2C10.2,18,10.6,26.1,15.7,31.2z"/>
		<path id="XMLID_14_" style="fill:none;stroke:#999999;stroke-linecap:round;stroke-linejoin:round;stroke-miterlimit:10;" d="
			M14.1,30.9c5.5,5.5,14.2,6,20.3,1.3c0.8-0.6,0.9-1.9,0.2-2.6L15.4,10.5c-0.7-0.7-2-0.6-2.6,0.2C8.1,16.7,8.5,25.4,14.1,30.9z"/>
		
			<polyline id="XMLID_13_" style="fill:none;stroke:#999999;stroke-linecap:round;stroke-linejoin:round;stroke-miterlimit:10;" points="
			13,29.9 12.1,35.4 23.8,35.4 		"/>
		
			<path id="XMLID_12_" style="fill:none;stroke:#999999;stroke-width:0.75;stroke-linecap:round;stroke-linejoin:round;stroke-miterlimit:10;" d="
			M14.4,15.3c-1.4,3.5-1.2,7.5,0.6,10.9"/>
		
			<path id="XMLID_11_" style="fill:none;stroke:#999999;stroke-width:0.75;stroke-linecap:round;stroke-linejoin:round;stroke-miterlimit:10;" d="
			M34.6,24c1.6-3.9,0.9-8.4-2.2-11.5c-3-3-7.5-3.7-11.5-2.2"/>
	</g>
</g>
<g id="XMLID_362_">
	<g id="XMLID_351_" style="display:none;">
		<g id="XMLID_358_" style="display:inline;">
			<path id="XMLID_359_" style="fill:#CDEBC3;stroke:#42B549;stroke-miterlimit:10;" d="M28.4,28.4c-0.3,0-0.6-0.1-0.9-0.3
				c-1.4-1.1-3.2-1.7-5-1.7c-1.8,0-3.5,0.6-5,1.7c-0.6,0.5-1.6,0.4-2.1-0.3c-0.5-0.6-0.4-1.6,0.3-2.1c2-1.5,4.3-2.3,6.8-2.3
				c2.5,0,4.8,0.8,6.8,2.3c0.6,0.5,0.8,1.4,0.3,2.1C29.3,28.2,28.8,28.4,28.4,28.4z"/>
		</g>
		<g id="XMLID_356_" style="display:inline;">
			<circle id="XMLID_357_" style="fill:#CDEBC3;stroke:#42B549;stroke-miterlimit:10;" cx="22.5" cy="32.2" r="2.3"/>
		</g>
		<g id="XMLID_354_" style="display:inline;">
			<path id="XMLID_355_" style="fill:#CDEBC3;stroke:#42B549;stroke-miterlimit:10;" d="M11.7,24c-0.4,0-0.8-0.2-1.1-0.5
				c-0.5-0.6-0.5-1.6,0.1-2.1c3.2-2.9,7.4-4.5,11.8-4.5c4.4,0,8.5,1.6,11.8,4.5c0.6,0.5,0.7,1.5,0.1,2.1c-0.6,0.6-1.5,0.7-2.1,0.1
				c-2.7-2.4-6.2-3.7-9.8-3.7c-3.6,0-7.1,1.3-9.8,3.7C12.4,23.8,12.1,24,11.7,24z"/>
		</g>
		<g id="XMLID_352_" style="display:inline;">
			<path id="XMLID_353_" style="fill:#CDEBC3;stroke:#42B549;stroke-miterlimit:10;" d="M7,19.7c-0.4,0-0.8-0.2-1.1-0.5
				c-0.6-0.6-0.5-1.5,0-2.1c4.5-4.3,10.3-6.6,16.5-6.6c6.2,0,12,2.3,16.5,6.6c0.6,0.6,0.6,1.5,0,2.1c-0.6,0.6-1.5,0.6-2.1,0
				c-3.9-3.7-9-5.8-14.5-5.8c-5.4,0-10.5,2.1-14.5,5.8C7.8,19.6,7.4,19.7,7,19.7z"/>
		</g>
	</g>
	<g id="XMLID_333_" style="display:none;">
		<path id="XMLID_350_" style="display:inline;fill-rule:evenodd;clip-rule:evenodd;fill:#FFFFFF;" d="M29.5,33.1
			c-3-0.3-5.5-1.8-8.2-2.7c-2.6-0.8-5-1.8-7.4-1.8c-2.5,0-3.5,1-5.1,1.6c-0.3,0.1-0.7,0.2-1.1,0.1c-0.4,0-0.8-1.1-1.1-1.3
			c0,0-0.1,0.9-0.1,0.9v0.7c0,0.7,0.4,1.3,1.1,1.6c0.3,0.2,0.7,0.3,1.1,0.3c0.4,0,0.7-0.1,1-0.2c1.5-0.7,3.1-1,4.8-1
			c2.4,0,4.8,0.6,7.4,1.1c2.7,0.6,5.2,0.9,8.2,0.9c0.6,0,1.2,0,1.7-0.1C31.1,33.2,30.3,33.2,29.5,33.1z"/>
		<path id="XMLID_349_" style="display:inline;fill-rule:evenodd;clip-rule:evenodd;fill:#FFFFFF;" d="M15.5,11.7
			c3,0.3,5.5,1.8,8.2,2.7c2.6,0.8,5,1.8,7.4,1.8c2.5,0,3.5-1,5.1-1.6c0.3-0.1,0.7-0.2,1.1-0.1c0.4,0,0.8,1.1,1.1,1.3
			c0,0,0.1-0.9,0.1-0.9v-0.7c0-0.7-0.4-1.3-1.1-1.6c-0.3-0.2-0.7-0.3-1.1-0.3c-0.4,0-0.7,0.1-1,0.2c-1.5,0.7-3.1,1-4.8,1
			c-2.4,0-4.8-0.6-7.4-1.1c-2.7-0.6-5.2-0.9-8.2-0.9c-0.6,0-1.2,0-1.7,0.1C13.9,11.6,14.7,11.6,15.5,11.7z"/>
		<path id="XMLID_348_" style="display:inline;fill-rule:evenodd;clip-rule:evenodd;fill:#CDEBC3;" d="M37,12.8
			c-0.3-0.2-0.7-0.3-1.1-0.3c-0.3,0-0.7,0.1-1,0.2c-1.4,0.6-3,1-4.7,1c-2.3,0-4.7-0.5-7.2-1.1c-2.7-0.6-5.4-1.2-8.3-1.2
			c-0.4,0-0.9,0-1.3,0.1c-0.1,0-0.3,0-0.4,0c0.1,0,0.1,0,0.2,0c-1.8,0.2-3.5,0.7-5.2,1.6C7.4,13.4,7,14.1,7,14.9v15.2
			c0,0.2,0,0.4,0.1,0.6v0.1c0,0.6,0.4,1.2,1,1.5c0.3,0.2,0.7,0.2,1.1,0.2c0.3,0,0.7-0.1,1-0.2c1.4-0.6,3-0.9,4.7-0.9
			c2.3,0,4.7,0.5,7.2,1.1c2.5,0.6,5.2,1.1,7.9,1.2c0.1,0,0.2,0,0.3,0c0,0,0,0,0,0c0,0,0,0,0,0c0,0,0.1,0,0.1,0c0.3,0,0.7,0,1,0
			c0.2,0,0.4,0,0.6,0c-0.1,0-0.2,0-0.3,0c1.9-0.2,3.6-0.7,5.2-1.6c0.7-0.4,1.1-1.1,1.1-1.9V14.9v0v-0.6C38,13.7,37.6,13.1,37,12.8z"
			/>
		<path id="XMLID_347_" style="display:inline;fill-rule:evenodd;clip-rule:evenodd;fill:#FFFFFF;" d="M14.7,11.7
			c3,0.3,5.8,1.2,8.6,2c2.6,0.8,5,1.6,7.4,1.8c1.8,0.2,3.5,0,5.1-0.6c0.3-0.1,0.7-0.2,1.1-0.1c0.4,0,0.8,0.2,1.1,0.4
			c0,0,0.1,0.1,0.1,0.1v-0.7c0-0.7-0.4-1.3-1.1-1.6c-0.3-0.2-0.7-0.3-1.1-0.3c-0.4,0-0.7,0.1-1,0.2c-1.5,0.7-3.1,1-4.8,1
			c-2.4,0-4.8-0.6-7.4-1.1c-2.7-0.6-5.6-1.3-8.5-1.3c-0.6,0-1.2,0-1.7,0.1C13,11.6,13.8,11.6,14.7,11.7z"/>
		<path id="XMLID_346_" style="display:inline;fill-rule:evenodd;clip-rule:evenodd;fill:#FFFFFF;" d="M30.4,33.3
			c-3-0.3-5.8-1.2-8.6-2c-2.6-0.8-5-1.6-7.4-1.8c-1.8-0.2-3.5,0-5.1,0.6c-0.3,0.1-0.7,0.2-1.1,0.1c-0.4,0-0.8-0.2-1.1-0.4
			c0,0-0.1-0.1-0.1-0.1v0.7c0,0.7,0.4,1.3,1.1,1.6c0.3,0.2,0.7,0.3,1.1,0.3c0.4,0,0.7-0.1,1-0.2c1.5-0.7,3.1-1,4.8-1
			c2.4,0,4.8,0.6,7.4,1.1c2.7,0.6,5.6,1.3,8.5,1.3c0.6,0,1.2,0,1.7-0.1C32,33.4,31.2,33.4,30.4,33.3z"/>
		<g id="XMLID_334_" style="display:inline;">
			<g id="XMLID_335_">
				
					<path id="XMLID_345_" style="fill-rule:evenodd;clip-rule:evenodd;fill:none;stroke:#42B549;stroke-linecap:round;stroke-linejoin:round;stroke-miterlimit:10;" d="
					M37,12.8c-0.3-0.2-0.7-0.3-1.1-0.3c-0.3,0-0.7,0.1-1,0.2c-1.4,0.6-3,1-4.7,1c-2.3,0-4.7-0.5-7.2-1.1c-2.7-0.6-5.4-1.2-8.3-1.2
					c-0.4,0-0.9,0-1.3,0.1c-0.1,0-0.3,0-0.4,0c0.1,0,0.1,0,0.2,0c-1.8,0.2-3.5,0.7-5.2,1.6C7.4,13.4,7,14.1,7,14.9v15.2
					c0,0.2,0,0.4,0.1,0.6v0.1c0,0.6,0.4,1.2,1,1.5c0.3,0.2,0.7,0.2,1.1,0.2c0.3,0,0.7-0.1,1-0.2c1.4-0.6,3-0.9,4.7-0.9
					c2.3,0,4.7,0.5,7.2,1.1c2.5,0.6,5.2,1.1,7.9,1.2c0.1,0,0.2,0,0.3,0c0,0,0,0,0,0c0,0,0,0,0,0c0,0,0.1,0,0.1,0c0.3,0,0.7,0,1,0
					c0.2,0,0.4,0,0.6,0c-0.1,0-0.2,0-0.3,0c1.9-0.2,3.6-0.7,5.2-1.6c0.7-0.4,1.1-1.1,1.1-1.9V14.9v0v-0.6C38,13.7,37.6,13.1,37,12.8
					z"/>
				
					<path id="XMLID_344_" style="fill-rule:evenodd;clip-rule:evenodd;fill:none;stroke:#42B549;stroke-linecap:round;stroke-linejoin:round;stroke-miterlimit:10;" d="
					M30.7,17.3c0,0,1.9,0.6,4.2-0.7"/>
				
					<path id="XMLID_343_" style="fill-rule:evenodd;clip-rule:evenodd;fill:none;stroke:#42B549;stroke-linecap:round;stroke-linejoin:round;stroke-miterlimit:10;" d="
					M14.4,27.4c0,0-1.9-0.6-4.2,0.7"/>
				<g id="XMLID_336_">
					<path id="XMLID_340_" style="fill:#42B549;" d="M21.1,21.5l0.2-0.2c0.4-0.5,0.7-1,0.7-1.7c0-0.7-0.2-1.2-0.7-1.7
						c-0.5-0.5-1-0.7-1.6-0.7l-2.3,0c-0.2,0-0.3,0.1-0.4,0.2c-0.1,0.1-0.2,0.2-0.2,0.4v7c0,0.2,0.1,0.3,0.2,0.4
						c0.1,0.1,0.2,0.2,0.4,0.2c0.2,0,0.3-0.1,0.4-0.2c0.1-0.1,0.2-0.2,0.2-0.4V22h1.7c0.1,0,0.2,0,0.3,0l0.1,0l1.8,3.2
						c0.1,0.1,0.2,0.2,0.4,0.3c0,0,0.1,0,0.1,0c0.1,0,0.2,0,0.3-0.1c0.1-0.1,0.2-0.2,0.3-0.3c0-0.1,0-0.1,0-0.2c0-0.1,0-0.2-0.1-0.3
						L21.1,21.5z M17.9,18.4h1.7c0.3,0,0.6,0.1,0.9,0.4c0.2,0.2,0.4,0.5,0.4,0.9c0,0.3-0.1,0.6-0.4,0.9c-0.2,0.2-0.5,0.4-0.9,0.4
						h-1.7V18.4z"/>
					<path id="XMLID_337_" style="fill:#42B549;" d="M28,20.6c-0.5-0.6-1.2-0.8-2-0.8c-0.8,0-1.4,0.3-2,0.8c-0.5,0.5-0.8,1.2-0.8,2
						v4.6c0,0.2,0.1,0.3,0.2,0.4c0.1,0.1,0.2,0.2,0.4,0.2c0.1,0,0.3-0.1,0.4-0.2c0.1-0.1,0.2-0.2,0.2-0.4v-2.3l0.2,0.1
						c0.4,0.3,0.9,0.4,1.4,0.4c0.8,0,1.4-0.3,2-0.8c0.5-0.6,0.8-1.2,0.8-2C28.8,21.8,28.5,21.1,28,20.6z M26,24.3
						c-0.5,0-0.8-0.2-1.2-0.5c-0.3-0.3-0.4-0.6-0.5-1l0-0.3c0-0.4,0.2-0.8,0.5-1.1c0.3-0.3,0.7-0.5,1.2-0.5c0.5,0,0.9,0.2,1.2,0.5
						c0.3,0.3,0.5,0.7,0.5,1.2c0,0.5-0.2,0.9-0.5,1.2C26.9,24.1,26.5,24.3,26,24.3z"/>
				</g>
			</g>
		</g>
	</g>
	<g id="XMLID_330_" style="display:none;">
		<path id="XMLID_332_" style="display:inline;fill:#CDEBC3;stroke:#42B549;stroke-miterlimit:10;" d="M17,14.2
			c7.1-1.8,10.6-0.3,10.6-0.3l8.6,3.7c0,0,2,0.6,2.6-1c0.6-1.6-0.8-2.5-0.8-2.5S27.3,9.7,25.5,9c-1.8-0.8-3.9-1-5.1-0.4
			c-1.2,0.6-5.1,2.3-7.1,2.5C11.9,11.2,9.9,10,9.9,10c-1.3-0.6-1.8,0.4-1.8,0.4s-1.6,2.9-2,4.3c-0.5,1.4,1.3,2,1.3,2l5.3,2.4
			c0,0,2.4,1.2,5.1,0.1c2.7-1.1,4.1-1.8,7.2-1.8s3.1-1.5,3.1-1.5s0.4-1.7-1.5-2.2C26.7,13.6,23.2,12.6,17,14.2z"/>
		<path id="XMLID_331_" style="display:inline;fill:#CDEBC3;stroke:#42B549;stroke-miterlimit:10;" d="M28,30.8
			c-7.1,1.8-10.6,0.3-10.6,0.3l-8.6-3.7c0,0-2-0.6-2.6,1c-0.6,1.6,0.8,2.5,0.8,2.5s10.7,4.4,12.5,5.2c1.8,0.8,3.9,1,5.1,0.4
			c1.2-0.6,5.1-2.3,7.1-2.5c1.4-0.1,3.4,1.1,3.4,1.1c1.3,0.6,1.8-0.4,1.8-0.4s1.6-2.9,2-4.3c0.5-1.4-1.3-2-1.3-2l-5.3-2.4
			c0,0-2.4-1.2-5.1-0.1c-2.7,1.1-4.1,1.8-7.2,1.8s-3.1,1.5-3.1,1.5s-0.4,1.7,1.5,2.2C18.3,31.4,21.8,32.4,28,30.8z"/>
	</g>
	<g id="XMLID_322_" style="display:none;">
		
			<path id="XMLID_329_" style="display:inline;fill:none;stroke:#999999;stroke-linecap:round;stroke-linejoin:round;stroke-miterlimit:10;" d="
			M22.1,28.4"/>
		<g id="XMLID_327_" style="display:inline;">
			<path id="XMLID_328_" style="fill:#FFFFFF;" d="M12.5,28c0,5.2,4.6,9.5,10,9.5c5.3,0,10-4.6,10-9.8c0-5.7-10-20.2-10-20.2
				S12.5,22,12.5,28z"/>
		</g>
		<path id="XMLID_326_" style="display:inline;fill:#CDEBC3;" d="M27.5,27.9c-5.4,0-10-4.4-10-9.5c0-1.4,0.5-3.2,1.3-5.1
			C16,17.9,12.5,24.4,12.5,28c0,5.2,4.6,9.5,10,9.5c5.3,0,10-4.6,10-9.8c0-0.4,0-0.8-0.1-1.2C30.9,27.4,29.3,27.9,27.5,27.9z"/>
		<g id="XMLID_324_" style="display:inline;">
			<path id="XMLID_325_" style="fill:none;stroke:#42B549;stroke-miterlimit:10;" d="M12.5,28c0,5.2,4.6,9.5,10,9.5
				c5.3,0,10-4.6,10-9.8c0-5.7-10-20.2-10-20.2S12.5,22,12.5,28z"/>
		</g>
		
			<path id="XMLID_323_" style="display:inline;fill:none;stroke:#42B549;stroke-linecap:round;stroke-linejoin:round;stroke-miterlimit:10;" d="
			M17.3,25.7c-0.5,0.7-0.9,1.9-0.9,2.9c0,2.4,2.1,4.4,4.6,4.4"/>
	</g>
	<g id="XMLID_299_" style="display:none;">
		<g id="XMLID_317_" style="display:inline;">
			<path id="XMLID_321_" style="fill:#FFFFFF;" d="M29.3,20.8c4.4-0.5,7.7-2.5,7.7-4.9c0-2.8-4.4-5-9.8-5c-2.9,0-5.5,0.7-7.3,1.7"/>
			<path id="XMLID_320_" style="fill:#FFFFFF;" d="M29.9,24.5c0.6-0.1,1.2-0.2,1.8-0.4c0.6-0.2,1.2-0.4,1.8-0.6
				c0.7-0.3,1.3-0.6,1.8-1c0.9-0.6,1.5-1.2,1.8-1.9c0-0.6,0-3.6,0-4.3c-0.3,0.8-0.9,1.9-1.8,2.5c-0.5,0.4-1.1,0.7-1.8,0.9
				c-0.5,0.2-1.1,0.4-1.8,0.6c-0.6,0.1-1.2,0.3-1.8,0.3"/>
			<path id="XMLID_319_" style="fill:#FFFFFF;" d="M28.6,28.2c0.6,0,0.7,0,1.3-0.1c0.6-0.1,1.2-0.2,1.8-0.4c0.6-0.2,1.2-0.4,1.8-0.6
				c0.7-0.3,1.3-0.6,1.8-1c0.9-0.6,1.5-1.2,1.8-1.9c0-0.6,0-3.1,0-3.8c-0.3,0.8-0.9,1.4-1.8,2.1c-0.5,0.4-1.1,0.7-1.8,0.9
				c-0.5,0.2-1.1,0.4-1.8,0.6c-0.6,0.1-1.2,0.3-1.8,0.3"/>
			<path id="XMLID_318_" style="fill:#FFFFFF;" d="M25.1,32.1c0.6,0.1,0.6,0.1,1.2,0.1c0.3,0,0.6,0,0.9,0c0.3,0,0.6,0,0.9,0
				c0.6,0,1.2-0.1,1.8-0.2c0.6-0.1,1.2-0.2,1.8-0.4c0.6-0.2,1.2-0.4,1.8-0.6c0.7-0.3,1.3-0.6,1.8-1c0.9-0.6,1.5-1.2,1.8-1.9
				c0-0.6,0-3.1,0-3.8c-0.3,0.8-0.9,1.4-1.8,2.1c-0.5,0.4-1.1,0.7-1.8,0.9c-0.5,0.2-1.1,0.4-1.8,0.6c-0.6,0.1-1.2,0.3-1.8,0.3
				c-0.6,0.1-0.5,0-1.1,0.1"/>
		</g>
		<polygon id="XMLID_316_" style="display:inline;fill-rule:evenodd;clip-rule:evenodd;fill:#CDEBC3;" points="34.3,30.1 31.5,31.9 
			31.5,20.4 34.3,18.7 		"/>
		<g id="XMLID_300_" style="display:inline;">
			<g id="XMLID_311_">
				<path id="XMLID_315_" style="fill:none;stroke:#42B549;stroke-miterlimit:10;" d="M29.3,20.8c4.4-0.5,7.7-2.5,7.7-4.9
					c0-2.8-4.4-5-9.8-5c-2.9,0-5.5,0.7-7.3,1.7"/>
				<path id="XMLID_314_" style="fill:none;stroke:#42B549;stroke-linecap:round;stroke-linejoin:round;stroke-miterlimit:10;" d="
					M29.9,24.5c0.6-0.1,1.2-0.2,1.8-0.4c0.6-0.2,1.2-0.4,1.8-0.6c0.7-0.3,1.3-0.6,1.8-1c0.9-0.6,1.5-1.2,1.8-1.9c0-0.6,0-3.6,0-4.3
					c-0.3,0.8-0.9,1.9-1.8,2.5c-0.5,0.4-1.1,0.7-1.8,0.9c-0.5,0.2-1.1,0.4-1.8,0.6c-0.6,0.1-1.2,0.3-1.8,0.3"/>
				<path id="XMLID_313_" style="fill:none;stroke:#42B549;stroke-miterlimit:10;" d="M28.6,28.2c0.6,0,0.7,0,1.3-0.1
					c0.6-0.1,1.2-0.2,1.8-0.4c0.6-0.2,1.2-0.4,1.8-0.6c0.7-0.3,1.3-0.6,1.8-1c0.9-0.6,1.5-1.2,1.8-1.9c0-0.6,0-3.1,0-3.8
					c-0.3,0.8-0.9,1.4-1.8,2.1c-0.5,0.4-1.1,0.7-1.8,0.9c-0.5,0.2-1.1,0.4-1.8,0.6c-0.6,0.1-1.2,0.3-1.8,0.3"/>
				<path id="XMLID_312_" style="fill:none;stroke:#42B549;stroke-miterlimit:10;" d="M25.1,32.1c0.6,0.1,0.6,0.1,1.2,0.1
					c0.3,0,0.6,0,0.9,0c0.3,0,0.6,0,0.9,0c0.6,0,1.2-0.1,1.8-0.2c0.6-0.1,1.2-0.2,1.8-0.4c0.6-0.2,1.2-0.4,1.8-0.6
					c0.7-0.3,1.3-0.6,1.8-1c0.9-0.6,1.5-1.2,1.8-1.9c0-0.6,0-3.1,0-3.8c-0.3,0.8-0.9,1.4-1.8,2.1c-0.5,0.4-1.1,0.7-1.8,0.9
					c-0.5,0.2-1.1,0.4-1.8,0.6c-0.6,0.1-1.2,0.3-1.8,0.3c-0.6,0.1-0.5,0-1.1,0.1"/>
			</g>
			<g id="XMLID_301_">
				<g id="XMLID_302_">
					<circle id="XMLID_310_" style="fill:#CDEBC3;stroke:#42B549;stroke-miterlimit:10;" cx="18.8" cy="23.3" r="10.8"/>
					<g id="XMLID_303_">
						<path id="XMLID_307_" style="fill:#42B549;" d="M17.3,22.5l0.2-0.2c0.4-0.5,0.7-1,0.7-1.7c0-0.7-0.2-1.2-0.7-1.7
							c-0.5-0.5-1-0.7-1.7-0.7l-2.3,0c-0.2,0-0.3,0.1-0.4,0.2c-0.1,0.1-0.2,0.2-0.2,0.4v7.1c0,0.2,0.1,0.3,0.2,0.4
							c0.1,0.1,0.2,0.2,0.4,0.2c0.2,0,0.3-0.1,0.4-0.2C14,26.2,14,26,14,25.9V23h1.7c0.1,0,0.2,0,0.3,0l0.1,0l1.8,3.2
							c0.1,0.1,0.2,0.2,0.4,0.3c0,0,0.1,0,0.1,0c0.1,0,0.2,0,0.3-0.1c0.1-0.1,0.2-0.2,0.3-0.3c0,0,0-0.1,0-0.2c0-0.1,0-0.2-0.1-0.3
							L17.3,22.5z M14,19.3h1.7c0.3,0,0.6,0.1,0.9,0.4c0.2,0.2,0.4,0.5,0.4,0.9c0,0.3-0.1,0.6-0.4,0.9c-0.2,0.2-0.5,0.4-0.9,0.4H14
							V19.3z"/>
						<path id="XMLID_304_" style="fill:#42B549;" d="M24.8,21.6c-0.5-0.6-1.2-0.8-2-0.8c-0.8,0-1.4,0.3-2,0.8
							c-0.5,0.6-0.8,1.2-0.8,2v4.6c0,0.2,0.1,0.3,0.2,0.4c0.1,0.1,0.2,0.2,0.4,0.2c0.2,0,0.3-0.1,0.4-0.2c0.1-0.1,0.2-0.3,0.2-0.4
							v-2.3l0.2,0.1c0.4,0.3,0.9,0.4,1.5,0.4c0.8,0,1.4-0.3,2-0.8c0.5-0.6,0.8-1.2,0.8-2C25.6,22.8,25.4,22.1,24.8,21.6z M22.8,25.3
							c-0.5,0-0.9-0.2-1.2-0.5c-0.3-0.3-0.4-0.6-0.5-1l0-0.3c0-0.5,0.2-0.8,0.5-1.1c0.3-0.3,0.7-0.5,1.2-0.5c0.5,0,0.9,0.2,1.2,0.5
							c0.3,0.3,0.5,0.7,0.5,1.2c0,0.5-0.2,0.9-0.5,1.2C23.7,25.1,23.3,25.3,22.8,25.3z"/>
					</g>
				</g>
			</g>
		</g>
	</g>
	<g id="XMLID_290_" style="display:none;">
		<path id="XMLID_298_" style="display:inline;fill:#CDEBC3;" d="M20,13.1c-1.8-1.8-6-2.5-8.3,0.1c-2.3,2.5-4.2,8.4-4.2,14
			c0,6.8,5.7,7.7,8.8,4.4c1.8-1.9,2-2.2,3.1-3.7h6.3c1.2,1.5,1.3,1.8,3.1,3.7c3.1,3.3,8.8,2.4,8.8-4.4c0-5.6-1.9-11.5-4.2-14
			c-2.4-2.5-6.5-1.8-8.3-0.1c-0.7,0.7-2.5,0.9-2.5,0.9S20.7,13.8,20,13.1z"/>
		<path id="XMLID_297_" style="display:inline;fill:#CDEBC3;" d="M18.5,29l1.1-1.4c-6.9-0.6-9.8-4.3-10.9-8.5
			c-0.7,2.5-1.2,5.3-1.2,8.1c0,6.8,5.7,7.7,8.8,4.4C17.5,30.2,18,29.7,18.5,29L18.5,29z"/>
		<path id="XMLID_296_" style="display:inline;fill:#CDEBC3;" d="M26.5,29l-1.1-1.4c6.9-0.6,9.8-4.3,10.9-8.5
			c0.7,2.5,1.2,5.3,1.2,8.1c0,6.8-5.7,7.7-8.8,4.4C27.5,30.2,27,29.7,26.5,29L26.5,29z"/>
		<path id="XMLID_294_" style="display:inline;fill:none;stroke:#42B549;stroke-miterlimit:10;" d="M20,13.1c-1.8-1.8-6-2.5-8.3,0.1
			c-2.3,2.5-4.2,8.4-4.2,14c0,6.8,5.7,7.7,8.8,4.4c1.8-1.9,2-2.2,3.1-3.7h6.3c1.2,1.5,1.3,1.8,3.1,3.7c3.1,3.3,8.8,2.4,8.8-4.4
			c0-5.6-1.9-11.5-4.2-14c-2.4-2.5-6.5-1.8-8.3-0.1c-0.7,0.7-2.5,0.9-2.5,0.9S20.7,13.8,20,13.1z"/>
		
			<path id="XMLID_293_" style="display:inline;fill:#FFFFFF;stroke:#42B549;stroke-linecap:round;stroke-linejoin:round;stroke-miterlimit:10;" d="
			M17.5,17.3v1.8h1.8c0.7,0,1.3,0.6,1.3,1.2s-0.6,1.3-1.3,1.3h-1.8v1.8c0,0.7-0.6,1.3-1.2,1.3c-0.7,0-1.3-0.6-1.3-1.3v-1.8h-1.8
			c-0.7,0-1.3-0.6-1.3-1.3s0.6-1.2,1.3-1.2H15v-1.8c0-0.7,0.6-1.3,1.3-1.3C16.9,16,17.5,16.5,17.5,17.3z"/>
		
			<circle id="XMLID_292_" style="display:inline;fill:#FFFFFF;stroke:#42B549;stroke-linecap:round;stroke-linejoin:round;stroke-miterlimit:10;" cx="30.3" cy="18.1" r="1.6"/>
		
			<circle id="XMLID_291_" style="display:inline;fill:#FFFFFF;stroke:#42B549;stroke-linecap:round;stroke-linejoin:round;stroke-miterlimit:10;" cx="27.2" cy="21.9" r="1.6"/>
	</g>
	<g id="XMLID_272_" style="display:none;">
		<g id="XMLID_273_" style="display:inline;">
			<g id="XMLID_281_">
				<g id="XMLID_282_">
					<g id="A0MZW8.tif_29_">
						<g id="XMLID_288_">
							<path id="XMLID_289_" style="fill-rule:evenodd;clip-rule:evenodd;fill:#FFFFFF;" d="M19,35.1c-0.9,0-1.4,0.1-1.5-0.8
								c-0.1-0.5-0.1-1.4-0.1-2c-0.2-1.5-2.8-4.2-3.7-5.8c-2.3-3.8-1.4-8.6,2.3-11.4c2.3-1.8,4.9-2.4,7.8-2.1c2.7,0.3,5,1.5,6.8,3.6
								c2.4,2.9,2.6,6.7,0.8,9.9c-1.3,2.2-3.8,4.5-3.9,5.8c0,0.3-0.1,1.4-0.2,2c-0.1,0.6-0.3,0.8-1.4,0.8
								C24.6,35.1,20.1,35.1,19,35.1z"/>
						</g>
					</g>
					<path id="XMLID_287_" style="fill-rule:evenodd;clip-rule:evenodd;fill:#CDEBC3;" d="M30.5,16.5c-1.8-2.1-4.1-3.3-6.8-3.6
						c-2.9-0.3-5.5,0.4-7.8,2.1c-0.7,0.6-1.4,1.2-1.9,1.9c0.3,0,0.5,0,0.8,0.1c3.2,0.4,5.9,1.7,8,4.2c2.8,3.3,3.1,7.8,0.9,11.6
						c-0.4,0.7-1,1.5-1.5,2.2c1.5,0,3,0,3.6,0c1.1,0,1.3-0.2,1.4-0.8c0.1-0.6,0.2-1.7,0.2-2c0.1-1.3,2.6-3.7,3.9-5.8
						C33.1,23.2,32.9,19.4,30.5,16.5z"/>
					<g id="A0MZW8.tif_22_">
						<g id="XMLID_285_">
							<path id="XMLID_286_" style="fill-rule:evenodd;clip-rule:evenodd;fill:none;stroke:#42B549;stroke-miterlimit:10;" d="
								M19,35.1c-0.9,0-1.4,0.1-1.5-0.8c-0.1-0.5-0.1-1.4-0.1-2c-0.2-1.5-2.8-4.2-3.7-5.8c-2.3-3.8-1.4-8.6,2.3-11.4
								c2.3-1.8,4.9-2.4,7.8-2.1c2.7,0.3,5,1.5,6.8,3.6c2.4,2.9,2.6,6.7,0.8,9.9c-1.3,2.2-3.8,4.5-3.9,5.8c0,0.3-0.1,1.4-0.2,2
								c-0.1,0.6-0.3,0.8-1.4,0.8C24.6,35.1,20.1,35.1,19,35.1z"/>
						</g>
					</g>
					
						<line id="XMLID_284_" style="fill-rule:evenodd;clip-rule:evenodd;fill:none;stroke:#42B549;stroke-linecap:round;stroke-linejoin:round;stroke-miterlimit:10;" x1="18.1" y1="37.2" x2="26.7" y2="37.2"/>
					
						<line id="XMLID_283_" style="fill-rule:evenodd;clip-rule:evenodd;fill:none;stroke:#42B549;stroke-linecap:round;stroke-linejoin:round;stroke-miterlimit:10;" x1="18.8" y1="39.2" x2="26.1" y2="39.2"/>
				</g>
			</g>
			<g id="XMLID_275_">
				
					<line id="XMLID_280_" style="fill-rule:evenodd;clip-rule:evenodd;fill:none;stroke:#42B549;stroke-linecap:round;stroke-linejoin:round;stroke-miterlimit:10;" x1="22.3" y1="5.8" x2="22.3" y2="8.4"/>
				
					<line id="XMLID_279_" style="fill-rule:evenodd;clip-rule:evenodd;fill:none;stroke:#42B549;stroke-linecap:round;stroke-linejoin:round;stroke-miterlimit:10;" x1="5.5" y1="23" x2="8" y2="23"/>
				
					<line id="XMLID_278_" style="fill-rule:evenodd;clip-rule:evenodd;fill:none;stroke:#42B549;stroke-linecap:round;stroke-linejoin:round;stroke-miterlimit:10;" x1="37" y1="24" x2="39.5" y2="24"/>
				
					<line id="XMLID_277_" style="fill-rule:evenodd;clip-rule:evenodd;fill:none;stroke:#42B549;stroke-linecap:round;stroke-linejoin:round;stroke-miterlimit:10;" x1="33.5" y1="13" x2="35.3" y2="11.3"/>
				
					<line id="XMLID_276_" style="fill-rule:evenodd;clip-rule:evenodd;fill:none;stroke:#42B549;stroke-linecap:round;stroke-linejoin:round;stroke-miterlimit:10;" x1="11.6" y1="13.2" x2="9.9" y2="11.4"/>
			</g>
			
				<path id="XMLID_274_" style="fill-rule:evenodd;clip-rule:evenodd;fill:none;stroke:#42B549;stroke-linecap:round;stroke-linejoin:round;stroke-miterlimit:10;" d="
				M28.7,25.4c1.3-2.2,1.1-4.9-0.5-6.9c-1.2-1.5-2.8-2.3-4.7-2.5"/>
		</g>
	</g>
	<g id="XMLID_247_" style="display:none;">
		<g id="XMLID_259_" style="display:inline;">
			<g id="XMLID_269_">
				<path id="XMLID_436_" style="fill:#FFFFFF;" d="M33.1,35.5c0,1.1-0.9,2-2,2H13.9c-1.1,0-2-0.9-2-2v-26c0-1.1,0.9-2,2-2h17.2
					c1.1,0,2,0.9,2,2V35.5z"/>
			</g>
			<path id="XMLID_267_" style="fill:#CDEBC3;" d="M11.9,31.4h21.1V11.1H11.9V31.4z"/>
			<line id="XMLID_266_" style="fill:none;stroke:#42B549;stroke-miterlimit:10;" x1="11.9" y1="10.9" x2="33.1" y2="10.9"/>
			<line id="XMLID_265_" style="fill:none;stroke:#42B549;stroke-miterlimit:10;" x1="11.9" y1="31.4" x2="33.1" y2="31.4"/>
			<g id="XMLID_262_">
				<path id="XMLID_433_" style="fill:none;stroke:#42B549;stroke-miterlimit:10;" d="M33.1,35.5c0,1.1-0.9,2-2,2H13.9
					c-1.1,0-2-0.9-2-2v-26c0-1.1,0.9-2,2-2h17.2c1.1,0,2,0.9,2,2V35.5z"/>
			</g>
			
				<path id="XMLID_261_" style="fill:none;stroke:#333333;stroke-width:0.75;stroke-linecap:round;stroke-linejoin:round;stroke-miterlimit:10;" d="
				M21.4,34.8"/>
			<path id="XMLID_260_" style="fill:#42B549;" d="M23.4,35.3c-0.5,0.5-1.3,0.5-1.9,0c-0.3-0.3-0.4-0.6-0.4-0.9
				c0-0.4,0.1-0.7,0.4-0.9c0.3-0.3,0.6-0.4,0.9-0.4c0.4,0,0.7,0.1,0.9,0.4c0.3,0.3,0.4,0.6,0.4,0.9C23.8,34.7,23.7,35,23.4,35.3z"/>
		</g>
		<g id="XMLID_248_" style="display:inline;">
			<g id="XMLID_254_">
				<g id="XMLID_257_">
					<path id="XMLID_258_" style="fill:#42B549;" d="M9.4,18.8c0,0.2-0.1,0.4-0.2,0.6c-1.4,1.8-1.4,4.4,0,6.2c0.3,0.4,0.2,1-0.2,1.3
						c-0.4,0.3-1,0.2-1.3-0.2c-1-1.2-1.5-2.7-1.5-4.2c0-1.6,0.5-3,1.5-4.2C8,17.9,8.6,17.8,9,18.1C9.2,18.3,9.4,18.6,9.4,18.8z"/>
				</g>
				<g id="XMLID_255_">
					<path id="XMLID_256_" style="fill:#42B549;" d="M6.6,29.2c0,0.3-0.1,0.5-0.3,0.7c-0.4,0.3-1,0.3-1.3-0.1
						c-1.8-2-2.8-4.6-2.8-7.3c0-2.7,1-5.3,2.8-7.3c0.3-0.4,0.9-0.4,1.3-0.1c0.4,0.3,0.4,0.9,0.1,1.3C4.9,18.1,4,20.2,4,22.5
						c0,2.3,0.8,4.4,2.3,6.1C6.5,28.8,6.6,29,6.6,29.2z"/>
				</g>
			</g>
			<g id="XMLID_249_">
				<g id="XMLID_252_">
					<path id="XMLID_253_" style="fill:#42B549;" d="M35.6,18.8c0,0.2,0.1,0.4,0.2,0.6c1.4,1.8,1.4,4.4,0,6.2
						c-0.3,0.4-0.2,1,0.2,1.3c0.4,0.3,1,0.2,1.3-0.2c1-1.2,1.5-2.7,1.5-4.2c0-1.6-0.5-3-1.5-4.2c-0.3-0.4-0.9-0.5-1.3-0.2
						C35.8,18.3,35.6,18.6,35.6,18.8z"/>
				</g>
				<g id="XMLID_250_">
					<path id="XMLID_251_" style="fill:#42B549;" d="M38.4,29.2c0,0.3,0.1,0.5,0.3,0.7c0.4,0.3,1,0.3,1.3-0.1c1.8-2,2.8-4.6,2.8-7.3
						c0-2.7-1-5.3-2.8-7.3c-0.3-0.4-0.9-0.4-1.3-0.1c-0.4,0.3-0.4,0.9-0.1,1.3c1.5,1.7,2.3,3.8,2.3,6.1c0,2.3-0.8,4.4-2.3,6.1
						C38.5,28.8,38.4,29,38.4,29.2z"/>
				</g>
			</g>
		</g>
	</g>
	<g id="XMLID_243_" style="display:none;">
		<circle id="XMLID_246_" style="display:inline;fill:#CDEBC3;stroke:#42B549;stroke-miterlimit:10;" cx="11.6" cy="22.5" r="3.1"/>
		<circle id="XMLID_245_" style="display:inline;fill:#CDEBC3;stroke:#42B549;stroke-miterlimit:10;" cx="22.5" cy="22.5" r="3.1"/>
		<circle id="XMLID_244_" style="display:inline;fill:#CDEBC3;stroke:#42B549;stroke-miterlimit:10;" cx="33.4" cy="22.5" r="3.1"/>
	</g>
	<g id="XMLID_226_">
		<g id="XMLID_241_">
			<path id="XMLID_242_" style="fill:#CDEBC3;stroke:#42B549;stroke-miterlimit:10;" d="M29.6,27c-6.4,4.5-10.4,4.2-10.4,4.2
				l-10-0.5c0,0-2.2,0.1-2.2,1.9c-0.1,1.8,1.7,2.2,1.7,2.2S21,35.2,23,35.3c2.1,0.1,4.2-0.4,5.2-1.5c1-1.1,4.2-4.2,6.2-5.1
				c1.4-0.7,3.8-0.2,3.8-0.2c1.6,0.1,1.7-1.1,1.7-1.1s0.5-3.5,0.4-5.1c-0.1-1.6-2.1-1.5-2.1-1.5L32,20.5c0,0-2.9-0.3-5.1,1.8
				c-2.3,2.1-3.4,3.4-6.5,4.5c-3.2,1.2-2.5,2.7-2.5,2.7s0.2,1.9,2.4,1.6C20.2,31.1,24,30.9,29.6,27z"/>
		</g>
		<g id="XMLID_227_">
			<g id="XMLID_237_">
				<g id="XMLID_238_">
					<path id="XMLID_239_" style="fill:#FFFFFF;" d="M14.2,25.6c-0.1,0-0.2,0-0.3-0.1c-0.2-0.2-5.5-4.4-7.2-6
						c-1.7-1.7-1.9-3.6-1.9-4.8c0-2.8,2.2-5,5-5c1.9,0,3.6,1.1,4.4,2.7c0.8-1.6,2.5-2.7,4.4-2.7c2.8,0,5,2.2,5,5
						c0,1.2-0.2,3.1-1.9,4.8c-1.6,1.6-7,5.8-7.2,6C14.4,25.6,14.3,25.6,14.2,25.6z"/>
				</g>
			</g>
			<g id="XMLID_233_">
				<g id="XMLID_234_">
					<path id="XMLID_235_" style="fill:#CDEBC3;" d="M15.4,24.9c-0.1,0-0.2,0-0.3-0.1c-0.2-0.2-5.1-4.4-6.5-6
						c-1.6-1.7-2.1-2.9-2.1-4.1c0-2.8,2-5,4.5-5c1.8,0,2.4,1.1,3.2,2.7c0.8-1.6,3.1-2.7,4.9-2.7c2.5,0,4.5,2.2,4.5,5
						c0,1.2-0.2,3.1-1.8,4.8c-1.5,1.6-5.9,5.1-6.2,5.3C15.6,24.8,15.5,24.9,15.4,24.9z"/>
				</g>
			</g>
			<g id="XMLID_229_">
				<g id="XMLID_230_">
					<path id="XMLID_231_" style="fill:none;stroke:#42B549;stroke-linecap:round;stroke-linejoin:round;stroke-miterlimit:10;" d="
						M14.2,25.6c-0.1,0-0.2,0-0.3-0.1c-0.2-0.2-5.5-4.4-7.2-6c-1.7-1.7-1.9-3.6-1.9-4.8c0-2.8,2.2-5,5-5c1.9,0,3.6,1.1,4.4,2.7
						c0.8-1.6,2.5-2.7,4.4-2.7c2.8,0,5,2.2,5,5c0,1.2-0.2,3.1-1.9,4.8c-1.6,1.6-7,5.8-7.2,6C14.4,25.6,14.3,25.6,14.2,25.6z"/>
				</g>
			</g>
			
				<path id="XMLID_228_" style="fill-rule:evenodd;clip-rule:evenodd;fill:none;stroke:#42B549;stroke-linecap:round;stroke-linejoin:round;stroke-miterlimit:10;" d="
				M7.5,14.7c0-1.2,1-2.2,2.2-2.2h0"/>
		</g>
	</g>
	<g id="XMLID_204_" style="display:none;">
		<g id="XMLID_207_" style="display:inline;">
			<path id="XMLID_208_" style="fill:#CDEBC3;stroke:#42B549;stroke-miterlimit:10;" d="M15,26.2c6,4.2,9.8,4,9.8,4l9.4-0.4
				c0,0,2.1,0.1,2.1,1.8c0,1.7-1.6,2.1-1.6,2.1S23.1,33.9,21.2,34c-1.9,0.1-4-0.4-4.9-1.4c-0.9-1-4-3.9-5.8-4.8
				C9.2,27.2,7,27.7,7,27.7c-1.5,0.1-1.6-1.1-1.6-1.1S5,23.3,5,21.8c0.1-1.5,1.9-1.4,1.9-1.4l5.8-0.3c0,0,2.7-0.3,4.8,1.7
				c2.1,1.9,3.2,3.1,6.1,4.3c3,1.1,2.4,2.5,2.4,2.5s-0.2,1.8-2.2,1.5C23.9,30.1,20.3,29.9,15,26.2z"/>
		</g>
		<g id="XMLID_205_" style="display:inline;">
			<path id="XMLID_206_" style="fill:#CDEBC3;stroke:#42B549;stroke-miterlimit:10;" d="M30,18.8c-6-4.2-9.8-4-9.8-4l-9.4,0.4
				c0,0-2.1-0.1-2.1-1.8c0-1.7,1.6-2.1,1.6-2.1s11.6-0.4,13.5-0.5c1.9-0.1,4,0.4,4.9,1.4c0.9,1,4,3.9,5.8,4.8
				c1.3,0.6,3.5,0.2,3.5,0.2c1.5-0.1,1.6,1.1,1.6,1.1s0.4,3.3,0.4,4.8c-0.1,1.5-1.9,1.4-1.9,1.4l-5.8,0.3c0,0-2.7,0.3-4.8-1.7
				c-2.1-1.9-3.2-3.1-6.1-4.3c-3-1.1-2.4-2.5-2.4-2.5s0.2-1.8,2.2-1.5C21.1,14.9,24.7,15.1,30,18.8z"/>
		</g>
	</g>
	<g id="XMLID_172_" style="display:none;">
		<g id="XMLID_181_" style="display:inline;">
			<g id="GcQSZb_10_">
				<g id="XMLID_182_">
					<g id="XMLID_195_">
						<path id="XMLID_198_" style="fill:#CDEBC3;stroke:#42B549;stroke-miterlimit:10;" d="M14.4,8.8c1.1-0.6,2.9-1.5,4.2-1.8
							c1.7-0.4,3.4-0.6,5.1-0.5c0.8,0,1.6,0.2,2.3,0.3c0,0-1.1,0.3-1.9,0.5c-1.1,0.2-2,0.8-2.9,1.5c-0.9,0.7-1.8,1.4-2.6,2.1
							c-0.9,0.7-1.9,1.3-3.2,1.6"/>
						<path id="XMLID_197_" style="fill:#CDEBC3;stroke:#42B549;stroke-miterlimit:10;" d="M13.3,14.8c0,0.5-0.9,2-1.9,3.2
							c-1.6,1.9-2.3,4.1-2.5,5.1c-0.1,0.3-0.2,0.8-0.3,0.9c-0.8-1.4-1-2.8-1.1-3.7c-0.3-3,1.1-5.9,1.7-6.3"/>
						<path id="XMLID_196_" style="fill:#CDEBC3;stroke:#42B549;stroke-miterlimit:10;" d="M8.3,11.5c-0.1-2.1,1.7-3.7,3.7-3.7
							c2,0,3.6,1.6,3.6,3.7c0,2-1.7,3.6-3.7,3.6C9.9,15,8.2,13.5,8.3,11.5z"/>
					</g>
					<g id="XMLID_191_">
						<path id="XMLID_194_" style="fill:#FFFFFF;stroke:#42B549;stroke-miterlimit:10;" d="M9.3,31.8c-0.6-1.1-1.5-2.9-1.8-4.2
							c-0.4-1.7-0.6-3.4-0.5-5.1c0-0.8,0.4-2.3,0.4-2.3c0.1,0.6,0.3,1.2,0.4,1.9c0.2,1.1,0.8,2,1.5,2.9c0.7,0.9,1.4,1.8,2.1,2.6
							c0.7,0.9,1.3,1.9,1.6,3.2"/>
						<path id="XMLID_193_" style="fill:#FFFFFF;stroke:#42B549;stroke-miterlimit:10;" d="M15.3,33c0.5,0,0.9,0.2,1.2,0.4
							c0.8,0.5,1.5,1.1,2.2,1.7c0.7,0.7,1.3,1.3,2.3,1.6c0.3,0.1,1.6,0.2,1.6,0.2c-0.4,0.2-0.9,0.4-1.6,0.7c-0.9,0.3-2,0.5-2.9,0.5
							c-1,0-2.9-0.4-3.7-1"/>
						<path id="XMLID_192_" style="fill:#FFFFFF;stroke:#42B549;stroke-miterlimit:10;" d="M11.9,38c-2.1,0.1-3.7-1.7-3.7-3.7
							c0-2,1.6-3.6,3.7-3.6c2,0,3.6,1.7,3.6,3.7C15.5,36.3,14,38,11.9,38z"/>
					</g>
					<g id="XMLID_187_">
						<path id="XMLID_190_" style="fill:#CDEBC3;stroke:#42B549;stroke-miterlimit:10;" d="M30.6,36.2c-1.1,0.6-2.9,1.5-4.2,1.8
							c-1.7,0.4-3.4,0.6-5.1,0.5c-0.8,0-1.6-0.2-2.3-0.3c0,0,0.9-0.1,1.9-0.5c1.1-0.4,2-0.8,2.9-1.5c0.9-0.7,1.8-1.4,2.6-2.1
							c0.9-0.7,1.9-1.3,3.2-1.6"/>
						<path id="XMLID_189_" style="fill:#CDEBC3;stroke:#42B549;stroke-miterlimit:10;" d="M31.7,30.2c0-0.5,0.9-2,1.9-3.2
							c1.6-1.9,2.3-4.1,2.5-5.1c0.1-0.3,0.2-0.8,0.3-0.9c0.8,1.4,1,2.8,1.1,3.7c0.3,3-1.1,5.9-1.7,6.3"/>
						<path id="XMLID_188_" style="fill:#CDEBC3;stroke:#42B549;stroke-miterlimit:10;" d="M36.7,33.5c0.1,2.1-1.7,3.7-3.7,3.7
							c-2,0-3.6-1.6-3.6-3.7c0-2,1.7-3.6,3.7-3.6C35.1,30,36.8,31.5,36.7,33.5z"/>
					</g>
					<g id="XMLID_183_">
						<path id="XMLID_186_" style="fill:#FFFFFF;stroke:#42B549;stroke-miterlimit:10;" d="M35.7,13.2c0.6,1.1,1.5,2.9,1.8,4.2
							c0.4,1.7,0.6,3.4,0.5,5.1c0,0.8-0.4,2.3-0.4,2.3c-0.1-0.6-0.3-1.2-0.4-1.9c-0.2-1.1-0.8-2-1.5-2.9c-0.7-0.9-1.4-1.8-2.1-2.6
							c-0.7-0.9-1.3-1.9-1.6-3.2"/>
						<path id="XMLID_185_" style="fill:#FFFFFF;stroke:#42B549;stroke-miterlimit:10;" d="M29.7,12c-0.5,0-0.9-0.2-1.2-0.4
							c-0.8-0.5-1.5-1.1-2.2-1.7c-0.7-0.7-1.4-1.4-2.4-1.6C23.6,8.2,22.6,8,22.6,8c0.4-0.2,1.2-0.5,1.6-0.6c0.9-0.3,1.8-0.5,2.8-0.5
							c1,0,2.9,0.4,3.7,1"/>
						<path id="XMLID_184_" style="fill:#FFFFFF;stroke:#42B549;stroke-miterlimit:10;" d="M33.1,7c2.1-0.1,3.7,1.7,3.7,3.7
							c0,2-1.6,3.6-3.7,3.6c-2,0-3.6-1.7-3.6-3.7C29.5,8.7,31,7,33.1,7z"/>
					</g>
				</g>
			</g>
		</g>
		<g id="XMLID_179_" style="display:inline;">
			<path id="XMLID_180_" style="fill:#CDEBC3;stroke:#42B549;stroke-width:0.75;stroke-miterlimit:10;" d="M24.7,17.8v1.4l2.5-2.5
				l-2.5-2.5v1.5h-1c-0.8,0-2.7,0-3.5,0c-0.2,0-0.4,0-0.5,0.1c-0.3,0.1-0.6,0.3-0.7,0.6c-0.1,0.3-0.1,0.7-0.1,1
				c0,0.2,1.6,1.9,1.6,1.9s0-0.8,0-1.2c0-0.2,0.1-0.3,0.3-0.3c0.5,0,2.4,0,2.9,0H24.7z"/>
		</g>
		<g id="XMLID_177_" style="display:inline;">
			<path id="XMLID_178_" style="fill:#CDEBC3;stroke:#42B549;stroke-width:0.75;stroke-miterlimit:10;" d="M18.3,21.8
				c0,0.5,0,2.6,0,3.1c0,0.2,0.1,0.3,0.3,0.3c0.4,0,1.2,0,1.2,0s-1.7,1.6-1.9,1.6c-0.3,0-0.7,0-1-0.1c-0.4-0.1-0.5-0.3-0.6-0.7
				c0-0.2-0.1-0.4-0.1-0.5c0-0.8,0-2.9,0-3.7V21h-1.5l2.5-2.5l2.5,2.5h-1.4V21.8z"/>
		</g>
		<g id="XMLID_175_" style="display:inline;">
			<path id="XMLID_176_" style="fill:#CDEBC3;stroke:#42B549;stroke-width:0.75;stroke-miterlimit:10;" d="M21.4,29.4v1.5l-2.5-2.5
				l2.5-2.5v1.4h2c0.5,0,1.4,0,1.9,0c0.2,0,0.3-0.1,0.3-0.3c0-0.4,0-1.2,0-1.2s1.6,1.7,1.6,1.9c0,0.3,0,0.7-0.1,1
				c-0.1,0.4-0.3,0.5-0.7,0.6c-0.2,0.1-0.4,0.1-0.5,0.1c-0.8,0-1.7,0-2.5,0H21.4z"/>
		</g>
		<g id="XMLID_173_" style="display:inline;">
			<path id="XMLID_174_" style="fill:#CDEBC3;stroke:#42B549;stroke-width:0.75;stroke-miterlimit:10;" d="M29.8,22.6
				c0-0.8,0-2.2,0-2.9c0-0.2,0-0.4-0.1-0.5c-0.1-0.3-0.3-0.6-0.6-0.7c-0.3-0.1-0.7-0.1-1-0.1c-0.2,0-1.9,1.6-1.9,1.6s0.8,0,1.2,0
				c0.2,0,0.3,0.1,0.3,0.3c0,0.5,0,1.9,0,2.4v1.5h-1.4l2.5,2.5l2.5-2.5h-1.5V22.6z"/>
		</g>
	</g>
	<g id="XMLID_167_" style="display:none;">
		
			<path id="XMLID_171_" style="display:inline;fill:#FFFFFF;stroke:#42B549;stroke-linecap:round;stroke-linejoin:round;stroke-miterlimit:10;" d="
			M28.8,9.4c0,0,3.9,19.3-17.9,26.2c0,0,23.5-1.7,23.4-26.2H28.8z"/>
		<g id="XMLID_168_" style="display:inline;">
			
				<path id="XMLID_170_" style="fill:#CDEBC3;stroke:#42B549;stroke-linecap:round;stroke-linejoin:round;stroke-miterlimit:10;" d="
				M36.8,17.9c-0.3,4.4-2.2,12.6-14.8,17c0.2,0,0.4,0,0.6,0C32,35,39,29.5,39,23.4C39,21.4,38.2,19.6,36.8,17.9z"/>
			
				<path id="XMLID_169_" style="fill:#CDEBC3;stroke:#42B549;stroke-linecap:round;stroke-linejoin:round;stroke-miterlimit:10;" d="
				M25.1,16c0.1-1.2-0.1-2.4-0.4-3.5c-0.6,0-1.1-0.1-1.7-0.1c-9.4,0-17,5-17,11.1c0,3.4,2.4,6.4,6.1,8.5
				C18.8,29.5,24.7,23.8,25.1,16z"/>
		</g>
	</g>
	<g id="XMLID_2_" style="display:none;">
		<path id="XMLID_9_" style="display:inline;fill:#CDEBC3;stroke:#42B549;stroke-miterlimit:10;" d="M27.1,17.9
			c-1.2-1.2-3.2-1.2-4.4,0l4.4,4.4C28.4,21,28.4,19.1,27.1,17.9z"/>
		
			<path id="XMLID_8_" style="display:inline;fill:none;stroke:#42B549;stroke-width:0.75;stroke-linecap:round;stroke-linejoin:round;stroke-miterlimit:10;" d="
			M31.5,23.6c1.2-2.9,0.9-6.5-1.4-8.7c-2.3-2.3-5.8-2.6-8.7-1.4"/>
		<path id="XMLID_7_" style="display:inline;fill:#CDEBC3;" d="M15.7,31.2c5.1,5.1,13.2,5.5,18.8,1.2c0.8-0.6,0.9-1.7,0.2-2.4
			L16.9,12.3c-0.7-0.7-1.8-0.6-2.4,0.2C10.2,18,10.6,26.1,15.7,31.2z"/>
		
			<path id="XMLID_6_" style="display:inline;fill:none;stroke:#42B549;stroke-linecap:round;stroke-linejoin:round;stroke-miterlimit:10;" d="
			M14.1,30.9c5.5,5.5,14.2,6,20.3,1.3c0.8-0.6,0.9-1.9,0.2-2.6L15.4,10.5c-0.7-0.7-2-0.6-2.6,0.2C8.1,16.7,8.5,25.4,14.1,30.9z"/>
		
			<polyline id="XMLID_5_" style="display:inline;fill:none;stroke:#42B549;stroke-linecap:round;stroke-linejoin:round;stroke-miterlimit:10;" points="
			13,29.9 12.1,35.4 23.8,35.4 		"/>
		
			<path id="XMLID_4_" style="display:inline;fill:none;stroke:#42B549;stroke-width:0.75;stroke-linecap:round;stroke-linejoin:round;stroke-miterlimit:10;" d="
			M14.4,15.3c-1.4,3.5-1.2,7.5,0.6,10.9"/>
		
			<path id="XMLID_3_" style="display:inline;fill:none;stroke:#42B549;stroke-width:0.75;stroke-linecap:round;stroke-linejoin:round;stroke-miterlimit:10;" d="
			M34.6,24c1.6-3.9,0.9-8.4-2.2-11.5c-3-3-7.5-3.7-11.5-2.2"/>
	</g>
</g>
</svg>
